<?xml version="1.0" encoding="utf-8"?>
<!-- Generator: Adobe Illustrator 22.0.1, SVG Export Plug-In . SVG Version: 6.00 Build 0)  -->
<svg version="1.1" xmlns="http://www.w3.org/2000/svg" xmlns:xlink="http://www.w3.org/1999/xlink" x="0px" y="0px"
	 viewBox="0 0 578.8 213" style="enable-background:new 0 0 578.8 213;" xml:space="preserve">
<style type="text/css">
	.st0{fill:#00FECB;}
	.st1{fill:url(#SVGID_1_);}
	.st2{fill:#25CAD6;}
	.st3{fill:url(#SVGID_2_);}
	.st4{fill:url(#SVGID_3_);}
	.st5{fill:url(#SVGID_4_);}
	.st6{fill:url(#SVGID_5_);}
	.st7{fill:#002146;}
	.st8{fill:url(#SVGID_6_);}
	.st9{opacity:0.2;}
	.st10{opacity:0.15;fill:#6FFFFF;}
	.st11{clip-path:url(#SVGID_8_);}
	.st12{fill:url(#SVGID_9_);}
	.st13{opacity:0.5;clip-path:url(#SVGID_8_);}
	.st14{fill:url(#SVGID_10_);}
	.st15{fill:url(#SVGID_11_);}
	.st16{fill:url(#SVGID_12_);}
	.st17{fill:url(#SVGID_13_);}
	.st18{fill:url(#SVGID_14_);}
	.st19{clip-path:url(#SVGID_16_);}
	.st20{fill:url(#SVGID_17_);}
	.st21{opacity:0.5;clip-path:url(#SVGID_16_);}
	.st22{fill:url(#SVGID_18_);}
	.st23{fill:url(#SVGID_19_);}
	.st24{clip-path:url(#SVGID_21_);}
	.st25{fill:url(#SVGID_22_);}
	.st26{opacity:0.5;clip-path:url(#SVGID_21_);}
	.st27{fill:url(#SVGID_23_);}
	.st28{clip-path:url(#SVGID_25_);}
	.st29{fill:url(#SVGID_26_);}
	.st30{opacity:0.5;clip-path:url(#SVGID_25_);}
	.st31{fill:url(#SVGID_27_);}
	.st32{fill:#094C7F;}
	.st33{fill:#011528;}
	.st34{fill:url(#SVGID_28_);}
	.st35{fill:url(#SVGID_29_);}
	.st36{fill:#00ACCB;}
	.st37{fill:#00FEF2;}
	.st38{fill:#FFFFFF;}
</style>
<g id="Layer_2">
</g>
<g id="Layer_1">
	<g>
		<path class="st38" d="M44.4,55.7h43.2c21.9,0,29.4,14.2,29.4,28.4c0,10.2-3.8,20.9-14.3,23.3c8,1.6,15.6,10,15.6,24.8
			c0,18.2-7.9,31-30.5,31H44.4V55.7z M86.9,99.4c8.7,0,13.4-5,13.4-14.3c0-11.5-7.3-14-13.4-14H61.5v28.2H86.9z M87.4,147.6
			c6.5,0,14-2.6,14-16.2c0-9-3.9-17.1-14-17.1H61.5v33.2H87.4z"/>
		<path class="st38" d="M134.4,80.9c0-21.3,12.2-26.1,28.6-26.1c7.8,0,27.3,2.1,33.9,3.1v4.3c-9.4-0.6-33.9-1.3-33.9-1.3
			c-13.6-0.6-22.6,3.4-22.6,20.1v9.7c0,14.7,7.5,16.7,19.4,16.7h18c19.5,0,23.5,10.9,23.5,22.9v10c0,20.8-14.2,24.1-28.8,24.1
			c-7.2,0-28.5-1.5-35.2-2.6v-4.5c6.3,0.6,21.6,1.2,35.2,1.2c10.7,0,22.7-2.3,22.7-18v-10c0-11-4.5-16.7-17.5-16.7h-17.8
			c-23,0-25.7-11.2-25.7-22.9V80.9z"/>
		<path class="st38" d="M219.4,55.7h41.7c11.6,0,25.8,3.7,25.8,29.9c0,30.2-15,31.4-25.8,31.4c-5.9,0-34.9-1.6-35.7-2.1v48.1h-6
			V55.7z M261.1,110.9c10.3,0,19.8-3.2,19.7-25.2c-0.1-21.4-10.6-23.8-19.7-23.8h-35.7v49H261.1z"/>
		<path class="st38" d="M328.9,55.7h6.9l38.3,107.4h-6.9l-12-34.6h-46.8L296,163.1h-7L328.9,55.7z M352.9,122.5l-20.7-58.8
			l-21.7,58.8H352.9z"/>
		<path class="st38" d="M417.6,54.5c7.6,0,22.6,1.6,32.9,3.5v4.4c-0.1,0-19.4-1.9-32.9-1.9c-20.5,0-29.6,9.7-29.6,48.9
			c0,30.2,8.4,48.6,29.8,48.6c15.4,0,32.7-1.5,32.7-1.5v4.3c-10.3,1.9-25.2,3.2-32.9,3.2c-27.1,0-35.7-23.3-35.7-54.9
			C382,75.2,388,54.5,417.6,54.5z"/>
		<path class="st38" d="M470.3,74.8c0-14.4,9-19.4,18.5-19.1l44.6,1.8v4.3h-44.6c-8.7,0-12.5,4.4-12.5,13.1v32l51.2,1v4.3l-51.2,1
			v32c0,11.6,7.2,12.5,13.9,12.5h43.1v4.3l-43.1,1.8c-9.7,0.4-20-1.9-20-18.5V74.8z"/>
	</g>
</g>
</svg>
