<?xml version="1.0" encoding="utf-8"?>
<!-- Generator: Adobe Illustrator 22.0.1, SVG Export Plug-In . SVG Version: 6.00 Build 0)  -->
<svg version="1.1" xmlns="http://www.w3.org/2000/svg" xmlns:xlink="http://www.w3.org/1999/xlink" x="0px" y="0px"
	 viewBox="0 0 498.8 183.6" style="enable-background:new 0 0 498.8 183.6;" xml:space="preserve">
<style type="text/css">
	.st0{fill:#00FECB;}
	.st1{fill:url(#SVGID_1_);}
	.st2{fill:#25CAD6;}
	.st3{fill:url(#SVGID_2_);}
	.st4{fill:url(#SVGID_3_);}
	.st5{fill:url(#SVGID_4_);}
	.st6{fill:url(#SVGID_5_);}
	.st7{fill:#002146;}
	.st8{fill:url(#SVGID_6_);}
	.st9{opacity:0.2;}
	.st10{opacity:0.15;fill:#6FFFFF;}
	.st11{clip-path:url(#SVGID_8_);}
	.st12{fill:url(#SVGID_9_);}
	.st13{opacity:0.5;clip-path:url(#SVGID_8_);}
	.st14{fill:url(#SVGID_10_);}
	.st15{fill:url(#SVGID_11_);}
	.st16{fill:url(#SVGID_12_);}
	.st17{fill:url(#SVGID_13_);}
	.st18{fill:url(#SVGID_14_);}
	.st19{clip-path:url(#SVGID_16_);}
	.st20{fill:url(#SVGID_17_);}
	.st21{opacity:0.5;clip-path:url(#SVGID_16_);}
	.st22{fill:url(#SVGID_18_);}
	.st23{fill:url(#SVGID_19_);}
	.st24{clip-path:url(#SVGID_21_);}
	.st25{fill:url(#SVGID_22_);}
	.st26{opacity:0.5;clip-path:url(#SVGID_21_);}
	.st27{fill:url(#SVGID_23_);}
	.st28{clip-path:url(#SVGID_25_);}
	.st29{fill:url(#SVGID_26_);}
	.st30{opacity:0.5;clip-path:url(#SVGID_25_);}
	.st31{fill:url(#SVGID_27_);}
	.st32{fill:#094C7F;}
	.st33{fill:#011528;}
	.st34{fill:url(#SVGID_28_);}
	.st35{fill:url(#SVGID_29_);}
	.st36{fill:#00ACCB;}
	.st37{fill:#00FEF2;}
	.st38{fill:#FFFFFF;}
	.st39{fill:url(#SVGID_30_);}
	.st40{fill:url(#SVGID_31_);}
	.st41{fill:url(#SVGID_32_);}
	.st42{fill:url(#SVGID_33_);}
	.st43{fill:url(#SVGID_34_);}
	.st44{fill:url(#SVGID_35_);}
</style>
<g id="Layer_2">
</g>
<g id="Layer_1">
	<g>
		<linearGradient id="SVGID_1_" gradientUnits="userSpaceOnUse" x1="37.9228" y1="90.4594" x2="102.3509" y2="90.4594">
			<stop  offset="0" style="stop-color:#061F2B"/>
			<stop  offset="0.5514" style="stop-color:#0B213D"/>
			<stop  offset="0.9633" style="stop-color:#0D2245"/>
			<stop  offset="1" style="stop-color:#0D2245"/>
		</linearGradient>
		<path class="st1" d="M37.9,43.7h37.7c19.1,0,25.6,12.4,25.6,24.7c0,8.9-3.3,18.2-12.4,20.3c7,1.4,13.6,8.7,13.6,21.6
			c0,15.8-6.9,27-26.5,27H37.9V43.7z M74.9,81.8c7.6,0,11.7-4.4,11.7-12.4c0-10-6.3-12.2-11.7-12.2H52.8v24.6H74.9z M75.4,123.8
			c5.7,0,12.2-2.2,12.2-14.1c0-7.8-3.4-14.9-12.2-14.9H52.8v29H75.4z"/>
		<linearGradient id="SVGID_2_" gradientUnits="userSpaceOnUse" x1="116.3242" y1="90.5874" x2="174.6151" y2="90.5874">
			<stop  offset="0" style="stop-color:#061F2B"/>
			<stop  offset="0.5514" style="stop-color:#0B213D"/>
			<stop  offset="0.9633" style="stop-color:#0D2245"/>
			<stop  offset="1" style="stop-color:#0D2245"/>
		</linearGradient>
		<path class="st3" d="M116.3,65.7c0-18.5,10.6-22.8,24.9-22.8c6.8,0,23.8,1.8,29.5,2.7v3.7c-8.2-0.5-29.5-1.2-29.5-1.2
			c-11.9-0.5-19.7,2.9-19.7,17.5v8.4c0,12.8,6.5,14.6,16.9,14.6h15.7c17,0,20.5,9.5,20.5,19.9v8.7c0,18.2-12.4,21-25.1,21
			c-6.3,0-24.8-1.3-30.7-2.3v-4c5.5,0.5,18.8,1,30.7,1c9.3,0,19.8-2,19.8-15.7v-8.7c0-9.6-4-14.6-15.2-14.6h-15.5
			c-20.1,0-22.4-9.7-22.4-19.9V65.7z"/>
		<linearGradient id="SVGID_3_" gradientUnits="userSpaceOnUse" x1="190.3437" y1="90.4594" x2="249.1473" y2="90.4594">
			<stop  offset="0" style="stop-color:#061F2B"/>
			<stop  offset="0.5514" style="stop-color:#0B213D"/>
			<stop  offset="0.9633" style="stop-color:#0D2245"/>
			<stop  offset="1" style="stop-color:#0D2245"/>
		</linearGradient>
		<path class="st4" d="M190.3,43.7h36.3c10.1,0,22.5,3.2,22.5,26.1c0,26.3-13,27.4-22.5,27.4c-5.1,0-30.4-1.4-31.1-1.8v41.9h-5.2
			V43.7z M226.6,91.7c8.9,0,17.3-2.8,17.1-22c-0.1-18.7-9.2-20.7-17.1-20.7h-31.1v42.7H226.6z"/>
		<linearGradient id="SVGID_4_" gradientUnits="userSpaceOnUse" x1="250.9413" y1="90.4594" x2="325.0845" y2="90.4594">
			<stop  offset="0" style="stop-color:#061F2B"/>
			<stop  offset="0.5514" style="stop-color:#0B213D"/>
			<stop  offset="0.9633" style="stop-color:#0D2245"/>
			<stop  offset="1" style="stop-color:#0D2245"/>
		</linearGradient>
		<path class="st5" d="M285.7,43.7h6l33.4,93.6h-6l-10.5-30.2h-40.8l-10.7,30.2h-6.1L285.7,43.7z M306.7,101.8l-18-51.3l-18.9,51.3
			H306.7z"/>
		<linearGradient id="SVGID_5_" gradientUnits="userSpaceOnUse" x1="331.9937" y1="90.3323" x2="391.6914" y2="90.3323">
			<stop  offset="0" style="stop-color:#061F2B"/>
			<stop  offset="0.5514" style="stop-color:#0B213D"/>
			<stop  offset="0.9633" style="stop-color:#0D2245"/>
			<stop  offset="1" style="stop-color:#0D2245"/>
		</linearGradient>
		<path class="st6" d="M363.1,42.7c6.6,0,19.7,1.4,28.6,3.1v3.8c-0.1,0-16.9-1.7-28.6-1.7c-17.9,0-25.8,8.4-25.8,42.6
			c0,26.3,7.3,42.3,25.9,42.3c13.4,0,28.5-1.3,28.5-1.3v3.7c-8.9,1.7-22,2.8-28.6,2.8c-23.6,0-31.1-20.3-31.1-47.8
			C332,60.7,337.2,42.7,363.1,42.7z"/>
		<linearGradient id="SVGID_6_" gradientUnits="userSpaceOnUse" x1="408.9547" y1="90.6668" x2="463.9228" y2="90.6668">
			<stop  offset="0" style="stop-color:#061F2B"/>
			<stop  offset="0.5514" style="stop-color:#0B213D"/>
			<stop  offset="0.9633" style="stop-color:#0D2245"/>
			<stop  offset="1" style="stop-color:#0D2245"/>
		</linearGradient>
		<path class="st8" d="M409,60.3c0-12.5,7.8-16.9,16.1-16.6l38.9,1.5v3.7h-38.9c-7.5,0-10.9,3.8-10.9,11.4v27.9l44.6,0.9v3.7
			l-44.6,0.9v27.9c0,10.1,6.3,10.9,12.1,10.9h37.6v3.7l-37.6,1.5c-8.4,0.4-17.4-1.7-17.4-16.1V60.3z"/>
	</g>
</g>
</svg>
