<?xml version="1.0" encoding="utf-8"?>
<!-- Generator: Adobe Illustrator 22.0.1, SVG Export Plug-In . SVG Version: 6.00 Build 0)  -->
<svg version="1.1" xmlns="http://www.w3.org/2000/svg" xmlns:xlink="http://www.w3.org/1999/xlink" x="0px" y="0px"
	 viewBox="0 0 473.4 298" style="enable-background:new 0 0 473.4 298;" xml:space="preserve">
<style type="text/css">
	.st0{fill:#00FECB;}
	.st1{fill:url(#SVGID_1_);}
	.st2{fill:#25CAD6;}
	.st3{fill:url(#SVGID_2_);}
	.st4{fill:url(#SVGID_3_);}
	.st5{fill:url(#SVGID_4_);}
	.st6{fill:url(#SVGID_5_);}
	.st7{fill:#002146;}
	.st8{fill:url(#SVGID_6_);}
	.st9{opacity:0.2;}
	.st10{opacity:0.15;fill:#6FFFFF;}
	.st11{clip-path:url(#SVGID_8_);}
	.st12{fill:url(#SVGID_9_);}
	.st13{opacity:0.5;clip-path:url(#SVGID_8_);}
	.st14{fill:url(#SVGID_10_);}
	.st15{fill:url(#SVGID_11_);}
	.st16{fill:url(#SVGID_12_);}
	.st17{fill:url(#SVGID_13_);}
	.st18{fill:url(#SVGID_14_);}
	.st19{clip-path:url(#SVGID_16_);}
	.st20{fill:url(#SVGID_17_);}
	.st21{opacity:0.5;clip-path:url(#SVGID_16_);}
	.st22{fill:url(#SVGID_18_);}
	.st23{fill:url(#SVGID_19_);}
	.st24{clip-path:url(#SVGID_21_);}
	.st25{fill:url(#SVGID_22_);}
	.st26{opacity:0.5;clip-path:url(#SVGID_21_);}
	.st27{fill:url(#SVGID_23_);}
	.st28{fill:url(#SVGID_24_);}
	.st29{opacity:0.8;}
	.st30{fill:url(#SVGID_25_);}
	.st31{fill:url(#SVGID_26_);}
	.st32{fill:url(#SVGID_27_);}
	.st33{fill:url(#SVGID_28_);}
	.st34{fill:url(#SVGID_29_);}
	.st35{fill:url(#SVGID_30_);}
	.st36{fill:url(#SVGID_31_);}
	.st37{fill:url(#SVGID_32_);}
	.st38{fill:url(#SVGID_33_);}
	.st39{fill:url(#SVGID_34_);}
	.st40{fill:url(#SVGID_35_);}
	.st41{fill:url(#SVGID_36_);}
	.st42{fill:url(#SVGID_37_);}
	.st43{fill:url(#SVGID_38_);}
	.st44{fill:url(#SVGID_39_);}
	.st45{fill:url(#SVGID_40_);}
	.st46{fill:url(#SVGID_41_);}
	.st47{fill:url(#SVGID_42_);}
	.st48{fill:url(#SVGID_43_);}
	.st49{fill:url(#SVGID_44_);}
	.st50{fill:url(#SVGID_45_);}
	.st51{fill:url(#SVGID_46_);}
	.st52{fill:url(#SVGID_47_);}
	.st53{fill:#EAEEF2;}
	.st54{fill:#58595B;}
	.st55{fill:none;stroke:#414042;stroke-width:1.5;stroke-miterlimit:10;}
	.st56{fill:#FFFFFF;}
	.st57{opacity:0.6;}
	.st58{fill:#FFB936;}
	.st59{fill:#414042;}
	.st60{fill:#00D4FF;}
	.st61{fill:#00FEF2;}
	.st62{fill:none;stroke:#414042;stroke-width:1.5;stroke-miterlimit:10;stroke-dasharray:2.078,2.078;}
	.st63{fill:none;stroke:#0686D8;stroke-width:1.5;stroke-miterlimit:10;}
	.st64{fill:none;stroke:#414042;stroke-width:1.5;stroke-linecap:round;stroke-miterlimit:10;}
	.st65{opacity:0.3;}
	.st66{fill:#00ACCB;}
	.st67{fill:#6D6E71;}
	.st68{opacity:0.3;fill:#414042;}
	.st69{fill:#EDF0F4;}
	.st70{fill:#EDF6FC;}
	.st71{fill:#D1D3D4;}
	.st72{fill:#2BD8AE;}
	.st73{fill:#094C7F;}
	.st74{fill:#011528;}
	.st75{fill:url(#SVGID_48_);}
	.st76{fill:url(#SVGID_49_);}
	.st77{fill:url(#SVGID_50_);}
	.st78{fill:url(#SVGID_51_);}
	.st79{fill:url(#SVGID_52_);}
	.st80{fill:url(#SVGID_53_);}
	.st81{fill:url(#SVGID_54_);}
	.st82{fill:url(#SVGID_55_);}
</style>
<g id="Layer_2">
	<g id="XMLID_181_">
		<g id="XMLID_597_">
			<path id="XMLID_639_" class="st54" d="M203.6,259.5H90.2c-0.6,0-1-0.5-1-1v-81c0-0.6,0.4-1,1-1h113.5c0.6,0,1,0.4,1,1v81
				C204.6,259.1,204.2,259.5,203.6,259.5z"/>
			<path id="XMLID_638_" class="st55" d="M204.6,257.5c0,1.1-0.9,2.1-2.1,2.1H91.2c-1.1,0-2.1-0.9-2.1-2.1v-78.9
				c0-1.1,0.9-2.1,2.1-2.1h65.1"/>
			<path id="XMLID_637_" class="st55" d="M204.6,243v13.7c0,1.6-1.3,2.9-2.9,2.9H92c-1.6,0-2.9-1.3-2.9-2.9"/>
			<rect id="XMLID_636_" x="94.8" y="183.1" class="st56" width="103.6" height="67.4"/>
			<path id="XMLID_635_" class="st56" d="M202.6,264.1H89.9c-2.7,0-5-2-5.5-4.6l-0.8-4.9h52.2l2,2.9h14.4l2.2-2.9h55l-0.7,4.3
				C208.3,261.9,205.7,264.1,202.6,264.1z"/>
			<path id="XMLID_634_" class="st55" d="M209.5,254.6l-0.7,4.3c-0.5,3-3.1,5.3-6.2,5.3H89.9c-2.7,0-5-2-5.5-4.6l-0.8-4.9h52.2
				l2,2.9h13.4"/>
			<g id="XMLID_598_" class="st57">
				<rect id="XMLID_633_" x="109.9" y="190.6" class="st58" width="11.1" height="1.5"/>
				<rect id="XMLID_632_" x="115.4" y="195.5" class="st59" width="7.6" height="1.5"/>
				<rect id="XMLID_631_" x="139.9" y="195.5" class="st59" width="53.3" height="1.5"/>
				
					<rect id="XMLID_630_" x="128.3" y="195.5" transform="matrix(-1 -1.224647e-16 1.224647e-16 -1 265.2238 392.4837)" class="st60" width="8.6" height="1.5"/>
				<rect id="XMLID_629_" x="118" y="199.7" class="st59" width="15.2" height="1.5"/>
				<rect id="XMLID_628_" x="124.2" y="205.5" class="st58" width="19.3" height="1.5"/>
				<rect id="XMLID_627_" x="109.9" y="211" class="st59" width="21.1" height="1.5"/>
				
					<rect id="XMLID_626_" x="133.2" y="211" transform="matrix(-1 -1.224647e-16 1.224647e-16 -1 281.7232 423.4435)" class="st60" width="15.2" height="1.5"/>
				<rect id="XMLID_625_" x="115.4" y="216.5" class="st59" width="28.3" height="1.5"/>
				
					<rect id="XMLID_624_" x="155.3" y="216.5" transform="matrix(-1 -1.224647e-16 1.224647e-16 -1 329.3568 434.4407)" class="st59" width="18.8" height="1.5"/>
				<rect id="XMLID_623_" x="144.9" y="216.5" class="st58" width="8.9" height="1.5"/>
				<rect id="XMLID_622_" x="124.8" y="222" class="st59" width="24.8" height="1.5"/>
				
					<rect id="XMLID_621_" x="118" y="222" transform="matrix(-1 -1.224647e-16 1.224647e-16 -1 241.2324 445.4377)" class="st60" width="5.2" height="1.5"/>
				<rect id="XMLID_620_" x="109.9" y="226" class="st59" width="16.9" height="1.5"/>
				<rect id="XMLID_619_" x="128.1" y="226" class="st58" width="5.8" height="1.5"/>
				<rect id="XMLID_618_" x="135.5" y="226" class="st59" width="27.7" height="1.5"/>
				
					<rect id="XMLID_617_" x="165.4" y="226" transform="matrix(-1 -1.224647e-16 1.224647e-16 -1 355.734 453.5147)" class="st59" width="25" height="1.5"/>
				<rect id="XMLID_616_" x="115.4" y="231.5" class="st60" width="8.8" height="1.5"/>
				
					<rect id="XMLID_615_" x="126.8" y="231.5" transform="matrix(-1 -1.224647e-16 1.224647e-16 -1 274.3415 464.5117)" class="st59" width="20.8" height="1.5"/>
				<rect id="XMLID_614_" x="120.1" y="237" class="st58" width="16.9" height="1.5"/>
				<rect id="XMLID_613_" x="140.6" y="237" class="st59" width="16.9" height="1.5"/>
				<rect id="XMLID_612_" x="160.1" y="237" class="st59" width="15.9" height="1.5"/>
				
					<rect id="XMLID_611_" x="186.9" y="205.5" transform="matrix(-1 -1.224647e-16 1.224647e-16 -1 378.5038 412.4466)" class="st59" width="4.8" height="1.5"/>
				<rect id="XMLID_610_" x="145.2" y="205.5" class="st59" width="39.5" height="1.5"/>
				<rect id="XMLID_609_" x="124.2" y="190.6" class="st59" width="44.9" height="1.5"/>
				<rect id="XMLID_608_" x="102.4" y="188.4" class="st59" width="2.3" height="2.3"/>
				<rect id="XMLID_607_" x="102.4" y="194.5" class="st59" width="2.3" height="2.3"/>
				<rect id="XMLID_606_" x="102.4" y="200.7" class="st59" width="2.3" height="2.3"/>
				<rect id="XMLID_605_" x="102.4" y="206.8" class="st59" width="2.3" height="2.3"/>
				<rect id="XMLID_604_" x="102.4" y="213" class="st59" width="2.3" height="2.3"/>
				<rect id="XMLID_603_" x="102.4" y="219.2" class="st59" width="2.3" height="2.3"/>
				<rect id="XMLID_602_" x="102.4" y="225.3" class="st59" width="2.3" height="2.3"/>
				<rect id="XMLID_601_" x="102.4" y="231.5" class="st59" width="2.3" height="2.3"/>
				<rect id="XMLID_600_" x="102.4" y="237.6" class="st59" width="2.3" height="2.3"/>
				<rect id="XMLID_599_" x="102.4" y="243.8" class="st59" width="2.3" height="2.3"/>
			</g>
		</g>
		<g id="XMLID_586_">
			<path id="XMLID_596_" class="st56" d="M405,265.2l-0.3-51.9c0-3.9-3.6-7.1-8-7.1h-74.3l0.3,59L405,265.2z"/>
			<path id="XMLID_594_" class="st55" d="M334.7,206.3h62.1c4.4,0,8,3.6,8,8l0.3,48.6"/>
			<path id="XMLID_593_" class="st61" d="M396.7,265.3h8.3v-61.2c0-3.2-2.8-5.7-6.4-5.7h-1.9V265.3z"/>
			<path id="XMLID_591_" class="st55" d="M405,265.3v-60.6c0-3.5-2.8-6.4-6.4-6.4h-1.9v67"/>
			<circle id="XMLID_590_" class="st0" cx="365.9" cy="233.4" r="14.7"/>
			<g id="XMLID_587_">
				<g id="XMLID_588_">
					<circle id="XMLID_589_" class="st62" cx="358.9" cy="240.4" r="14.7"/>
				</g>
			</g>
		</g>
		<g id="XMLID_567_">
			<path id="XMLID_585_" class="st58" d="M292.9,105V89.3c0-21-17.2-38.2-38.2-38.2l0,0c-21,0-38.2,17.2-38.2,38.2v29.9h62.2
				C286.6,119.2,292.9,112.8,292.9,105z"/>
			<path id="XMLID_584_" class="st0" d="M291.6,265.3v-90.6c0-19.8-16.2-35.9-35.9-35.9l0,0c-19.8,0-35.9,16.2-35.9,35.9v90.6H291.6
				z"/>
			<path id="XMLID_583_" class="st55" d="M232.3,147.5c6.3-5.4,14.5-8.7,23.4-8.7l0,0c9.3,0,17.7,3.6,24.1,9.4"/>
			<path id="XMLID_582_" class="st55" d="M224,157.9c1.1-2,2.3-3.9,3.7-5.6"/>
			<path id="XMLID_581_" class="st55" d="M219.8,265.3v-90.6c0-2.8,0.3-5.6,1-8.2"/>
			<path id="XMLID_580_" class="st56" d="M255,153.3L255,153.3c-4.3,0-7.8-3.5-7.8-7.8V129c0-4.3,3.5-7.8,7.8-7.8l0,0
				c4.3,0,7.8,3.5,7.8,7.8v16.5C262.9,149.8,259.4,153.3,255,153.3z"/>
			<path id="XMLID_579_" class="st55" d="M255,153.3L255,153.3c-4.3,0-7.8-3.5-7.8-7.8V129c0-4.3,3.5-7.8,7.8-7.8l0,0
				c4.3,0,7.8,3.5,7.8,7.8v16.5C262.9,149.8,259.4,153.3,255,153.3z"/>
			<path id="XMLID_578_" class="st56" d="M285.3,72.5v33.1c0,16.6-13.6,30.2-30.2,30.2h0c-16.6,0-30.2-13.6-30.2-30.2V72.5H285.3z"
				/>
			<path id="XMLID_577_" class="st55" d="M285.3,81.4v24.2c0,16.6-13.6,30.2-30.2,30.2h0c-16.6,0-30.2-13.6-30.2-30.2V87.3"/>
			<path id="XMLID_576_" class="st58" d="M288.9,90h-10.9c-10.1,0.3-23-10.9-23-17.7v5.4V92c0,21.3-17.2,38.5-38.5,38.6l0,0
				l1.6-41.3l5.8-19l62.9-1.5l2,9.1V90z"/>
			<path id="XMLID_575_" class="st55" d="M216.6,130.4L216.6,130.4c21.3-0.1,38.5-17.3,38.5-38.6v-25l0,0c0,12.7,10.3,23,23,23h10.9
				"/>
			<path id="XMLID_574_" class="st55" d="M282.2,118.7c6.2-1.5,10.7-7.1,10.7-13.8V89.3c0-21-17.2-38.2-38.2-38.2l0,0
				c-21,0-38.2,17.2-38.2,38.2v43.1"/>
			<line id="XMLID_573_" class="st55" x1="261" y1="98.5" x2="273.3" y2="98.5"/>
			<polyline id="XMLID_572_" class="st55" points="259.5,103.9 259.5,112.6 254.9,112.6 			"/>
			<path id="XMLID_571_" class="st55" d="M262.3,122.6L262.3,122.6c-1.5,1.6-3.6,2.4-5.8,2.4h-1.7c-2,0-3.8-0.7-5.3-2l-0.5-0.5"/>
			<path id="XMLID_570_" class="st55" d="M216.8,121.3c13.8-5.9,23.4-19.6,23.4-35.5"/>
			<path id="XMLID_569_" class="st55" d="M215.6,111c9.5-7,15.7-18.3,15.7-31.1"/>
		</g>
		<g id="XMLID_564_">
			<line id="XMLID_566_" class="st64" x1="416.7" y1="119.2" x2="426.2" y2="119.2"/>
			<line id="XMLID_565_" class="st64" x1="421.4" y1="123.9" x2="421.4" y2="114.4"/>
		</g>
		<g id="XMLID_561_">
			<line id="XMLID_563_" class="st64" x1="116.2" y1="132.4" x2="125.7" y2="132.4"/>
			<line id="XMLID_562_" class="st64" x1="121" y1="137.1" x2="121" y2="127.6"/>
		</g>
		<g id="XMLID_558_">
			<line id="XMLID_560_" class="st64" x1="252.3" y1="33.7" x2="259.1" y2="27"/>
			<line id="XMLID_559_" class="st64" x1="259.1" y1="33.7" x2="252.3" y2="27"/>
		</g>
		<g id="XMLID_555_">
			<line id="XMLID_557_" class="st64" x1="424.3" y1="186.4" x2="431.1" y2="179.7"/>
			<line id="XMLID_556_" class="st64" x1="431.1" y1="186.4" x2="424.3" y2="179.7"/>
		</g>
		<line id="XMLID_554_" class="st55" x1="354" y1="119.2" x2="402.5" y2="119.2"/>
		<line id="XMLID_553_" class="st55" x1="185.8" y1="30.4" x2="234.3" y2="30.4"/>
		<line id="XMLID_552_" class="st55" x1="116.6" y1="40.9" x2="207.2" y2="40.9"/>
		<line id="XMLID_551_" class="st55" x1="349.6" y1="119.2" x2="340.9" y2="119.2"/>
		<line id="XMLID_550_" class="st55" x1="35.9" y1="148" x2="84.4" y2="148"/>
		<line id="XMLID_549_" class="st55" x1="59.4" y1="132.4" x2="107.9" y2="132.4"/>
		<line id="XMLID_548_" class="st55" x1="31.5" y1="148" x2="22.8" y2="148"/>
		<path id="XMLID_547_" class="st59" d="M315,103.6c0,1.6-1.3,3-3,3c-1.6,0-3-1.3-3-3c0-1.6,1.3-3,3-3
			C313.7,100.6,315,101.9,315,103.6z"/>
		<path id="XMLID_546_" class="st59" d="M72.7,64.5c0,1.6-1.3,3-3,3c-1.6,0-3-1.3-3-3c0-1.6,1.3-3,3-3
			C71.3,61.5,72.7,62.9,72.7,64.5z"/>
		<path id="XMLID_545_" class="st59" d="M69.7,168.5c0,1.6-1.3,3-3,3c-1.6,0-3-1.3-3-3c0-1.6,1.3-3,3-3
			C68.4,165.5,69.7,166.8,69.7,168.5z"/>
		<path id="XMLID_544_" class="st59" d="M174.6,79.9c0,1.1-0.9,2.1-2.1,2.1c-1.1,0-2.1-0.9-2.1-2.1s0.9-2.1,2.1-2.1
			C173.7,77.8,174.6,78.7,174.6,79.9z"/>
		<circle id="XMLID_543_" class="st59" cx="315.4" cy="40.9" r="2.1"/>
		<path id="XMLID_542_" class="st59" d="M407.1,170.5c0,1.1-0.9,2.1-2.1,2.1c-1.1,0-2.1-0.9-2.1-2.1s0.9-2.1,2.1-2.1
			C406.2,168.5,407.1,169.4,407.1,170.5z"/>
		<g id="XMLID_538_" class="st65">
			<path id="XMLID_541_" class="st59" d="M218.2,132.4v-0.4c2.5-0.1,5-0.5,7.4-1c-1.4-1-3-1.8-4.8-2c-1.9-0.3-3.9-0.5-6-0.6v4.1
				H218.2z"/>
			<path id="XMLID_540_" class="st59" d="M232.3,147.6c-1.7,1.4-3.2,3-4.6,4.7l-1.3-1.1c-1.5,1.8-2.8,3.8-3.9,5.9l1.5,0.8
				c-1.4,2.7-2.5,5.6-3.3,8.7l-1.7-0.4c-0.7,2.8-1,5.7-1,8.6v40.1c6.2-4.2,10.9-10.5,13-17.9c2.5-0.4,4.5-2.6,4.5-5.2l1.3-46.4
				c0-1.1-0.2-1.9-0.6-2.7c-1.8,1.1-3.5,2.2-5.1,3.6L232.3,147.6z"/>
			<path id="XMLID_539_" class="st59" d="M243,265.3v-11.7c0-14.9-10.2-27.7-24.9-33.5v45.2h3.3h18.3H243z"/>
		</g>
		<g id="XMLID_511_">
			<path id="XMLID_537_" class="st66" d="M236.9,265.3v-11.7c0-19.4-18.5-35.3-41.1-35.3l0,0c-22.6,0-41.1,15.9-41.1,35.3v11.7
				H236.9z"/>
			<g id="XMLID_535_">
				<rect id="XMLID_536_" x="155.3" y="253.2" class="st56" width="81.6" height="7.3"/>
			</g>
			<path id="XMLID_534_" class="st55" d="M155.8,245.3c-0.8,2.7-1.2,5.5-1.2,8.3v11.7"/>
			<path id="XMLID_533_" class="st55" d="M166.4,229c-3.1,2.7-5.7,5.8-7.6,9.3"/>
			<path id="XMLID_531_" class="st55" d="M236.9,265.3v-11.7c0-19.4-18.5-35.3-41.1-35.3l0,0c-8.6,0-16.7,2.3-23.3,6.2"/>
			<path id="XMLID_530_" class="st67" d="M166.9,195.4h-1.1c-2.1,0-3.8-1.7-3.8-3.8l-1.3-40.1c0-4.4,2-5.4,5.4-8.1l4.7-3.8
				c-12.2-7.6-9-14-9-14c5.6,8.4,36.3,2.2,54.2,4.9c4.2,0.7,7.5,4,8.1,8.3l0.4,3.3l0,0c3.5,0,6.3-0.2,6.3,3.2l-1.3,46.2
				c0,2.1-1.7,3.8-3.8,3.8H166.9z"/>
			<path id="XMLID_525_" class="st55" d="M166.9,195.4h-1.2c-2,0-3.7-1.6-3.7-3.7l-1.3-40.3c0,0,0-0.1,0-0.1c0-4.3,2.8-8.2,6.7-10.1
				l3.4-1.6c-11.7-7.3-9.3-12.8-9-13.9c0,0,0,0,0.1,0c5.8,8.4,36.5,2.1,54.3,4.9c4.2,0.7,7.3,4,7.9,8.2l0.4,3.3l0,0
				c3.5,0,6.3-0.2,6.3,3.2l-1.3,46.4c0,2-1.6,3.7-3.7,3.7H166.9z"/>
			<path id="XMLID_524_" class="st56" d="M200.4,234.6h-10.9c-1.4,0-2.6-1.2-2.6-2.6v-28c0-1.4,1.2-2.6,2.6-2.6h10.9
				c1.4,0,2.6,1.2,2.6,2.6v28C203,233.5,201.8,234.6,200.4,234.6z"/>
			<path id="XMLID_523_" class="st55" d="M200.4,234.6h-10.9c-1.4,0-2.6-1.2-2.6-2.6v-28c0-1.4,1.2-2.6,2.6-2.6h10.9
				c1.4,0,2.6,1.2,2.6,2.6v28C203,233.5,201.8,234.6,200.4,234.6z"/>
			<path id="XMLID_522_" class="st56" d="M195.6,218.7L195.6,218.7c-16.9,0-30.7-13.8-30.7-30.7v-20.8c0-16.9,13.8-27.6,30.7-27.6
				l0,0c16.9,0,30.7,10.7,30.7,27.6V188C226.3,204.9,212.5,218.7,195.6,218.7z"/>
			<path id="XMLID_521_" class="st55" d="M195.6,218.7L195.6,218.7c-16.9,0-30.7-13.8-30.7-30.7v-20.8c0-16.9,13.8-27.6,30.7-27.6
				l0,0c16.9,0,30.7,10.7,30.7,27.6V188C226.3,204.9,212.5,218.7,195.6,218.7z"/>
			<path id="XMLID_520_" class="st67" d="M228,146.7l-8-3.4c0.7-0.8-0.4-1.9,0-3c2.7-7.5-12.1-4.4-12.1-4.4s-17-7-36.4,7.6
				l-9.7,14.3c0,0,28.2,8,50.6-11.9c0.2,6.1,1.8,14.9,15.6,17.8v-11.1V146.7z"/>
			<path id="XMLID_519_" class="st55" d="M160.9,156.9c0,0,28.5,8.5,51.1-10.8c0.2-0.1,0.4,0,0.4,0.2c0.3,6.1,3.3,14.9,16.8,17.8"/>
			<path id="XMLID_518_" class="st55" d="M190.2,184.7h-23.1c-1.1,0-2-0.9-2-2V168c0-1.1,0.9-2,2-2h23.1c1.1,0,2,0.9,2,2v14.7
				C192.2,183.8,191.3,184.7,190.2,184.7z"/>
			<path id="XMLID_517_" class="st55" d="M224,184.7H201c-1.1,0-2-0.9-2-2V168c0-1.1,0.9-2,2-2H224c1.1,0,2,0.9,2,2v14.7
				C226,183.8,225.1,184.7,224,184.7z"/>
			<line id="XMLID_516_" class="st55" x1="192.2" y1="175.3" x2="198.2" y2="175.3"/>
			<line id="XMLID_515_" class="st55" x1="175.6" y1="175.3" x2="181.8" y2="175.3"/>
			<line id="XMLID_514_" class="st55" x1="209.4" y1="175.3" x2="215.6" y2="175.3"/>
			<polyline id="XMLID_513_" class="st55" points="195.9,177.6 195.9,196.6 203.1,196.6 			"/>
			<polyline id="XMLID_512_" class="st55" points="187,206.5 204.4,206.5 209.4,202.3 			"/>
		</g>
		<path id="XMLID_510_" class="st68" d="M279.8,148.2l1.1-1.3c-0.2-0.1-0.3-0.3-0.5-0.4c-6.3,5-10.5,12.6-10.9,21.3l-0.2,4.1
			c-0.6-0.2-1.2-0.3-1.8-0.3c-2.9,0-5.3,2.4-5.3,5.3v3.6c0,2.9,2.4,5.3,5.3,5.3c0.4,0,0.8-0.1,1.2-0.2l-1,23.5
			c-0.1,1.7,0.5,3.4,1.8,4.7c1.2,1.3,2.8,2,4.6,2h11.3l-0.2,2.4c-4.3,1.1-8.3,2.7-12,5l0.9,1.4c-2.2,1.3-4.2,2.8-6.1,4.4l-1.1-1.3
			c-3.3,2.9-6,6.1-8,9.7l1.5,0.8c-1.3,2.2-2.2,4.5-2.9,7l-1.6-0.5c-0.8,2.9-1.2,5.8-1.2,8.8v11.7h3.3h33.7v-90.6
			C291.6,164.2,287,154.8,279.8,148.2z"/>
		<g id="XMLID_485_">
			<path id="XMLID_509_" class="st56" d="M336.2,180.5c0,2-1.6,3.7-3.7,3.7l0,0c-2,0-3.7-1.6-3.7-3.7V177c0-2,1.6-3.7,3.7-3.7l0,0
				c2,0,3.7,1.6,3.7,3.7V180.5z"/>
			<path id="XMLID_508_" class="st55" d="M336.2,180.5c0,2-1.6,3.7-3.7,3.7l0,0c-2,0-3.7-1.6-3.7-3.7V177c0-2,1.6-3.7,3.7-3.7l0,0
				c2,0,3.7,1.6,3.7,3.7V180.5z"/>
			<path id="XMLID_507_" class="st56" d="M275.7,180.5c0,2-1.6,3.7-3.7,3.7l0,0c-2,0-3.7-1.6-3.7-3.7V177c0-2,1.6-3.7,3.7-3.7l0,0
				c2,0,3.7,1.6,3.7,3.7V180.5z"/>
			<path id="XMLID_506_" class="st55" d="M275.7,180.5c0,2-1.6,3.7-3.7,3.7l0,0c-2,0-3.7-1.6-3.7-3.7V177c0-2,1.6-3.7,3.7-3.7l0,0
				c2,0,3.7,1.6,3.7,3.7V180.5z"/>
			<path id="XMLID_505_" class="st61" d="M342.9,265.3v-11.7c0-19.4-18.5-35.3-41.1-35.3l0,0c-22.6,0-41.1,15.9-41.1,35.3v11.7
				H342.9z"/>
			<path id="XMLID_504_" class="st55" d="M261.9,245.3c-0.8,2.7-1.2,5.5-1.2,8.3v11.7"/>
			<path id="XMLID_503_" class="st55" d="M272.5,229c-3.1,2.7-5.7,5.8-7.6,9.3"/>
			<path id="XMLID_502_" class="st55" d="M342.9,265.3v-11.7c0-19.4-18.5-35.3-41.1-35.3l0,0c-8.6,0-16.7,2.3-23.3,6.2"/>
			<polygon id="XMLID_501_" class="st56" points="312,234.6 289.9,234.6 292.9,201.4 292.9,201.4 309,201.4 			"/>
			<polygon id="XMLID_500_" class="st55" points="312,234.6 289.9,234.6 292.9,201.4 292.9,201.4 309,201.4 			"/>
			<path id="XMLID_499_" class="st56" d="M326.6,214.2h-48c-2.7,0-4.8-2.2-4.7-4.9l1.7-41.4c0.6-14.4,12.5-25.9,26.9-25.9l0,0
				c14.5,0,26.3,11.4,26.9,25.9l1.7,41.4C331.4,212,329.3,214.2,326.6,214.2z"/>
			<path id="XMLID_498_" class="st55" d="M326.6,214.2h-48c-2.7,0-4.8-2.2-4.7-4.9l1.7-41.4c0.6-14.4,12.5-25.9,26.9-25.9l0,0
				c14.5,0,26.3,11.4,26.9,25.9l1.7,41.4C331.4,212,329.3,214.2,326.6,214.2z"/>
			<line id="XMLID_497_" class="st55" x1="283.4" y1="170.5" x2="298.1" y2="170.5"/>
			<line id="XMLID_496_" class="st55" x1="288.9" y1="176.1" x2="292.7" y2="176.1"/>
			<line id="XMLID_493_" class="st55" x1="311.2" y1="176.1" x2="315" y2="176.1"/>
			<line id="XMLID_492_" class="st55" x1="305.6" y1="170.5" x2="320.3" y2="170.5"/>
			<polyline id="XMLID_491_" class="st55" points="302.6,169.1 302.6,190.4 295.2,190.4 			"/>
			<path id="XMLID_490_" class="st55" d="M292.7,202.6h12.5c3.4,0,6.7-1.2,9.4-3.3l0.8-0.7"/>
			<path id="XMLID_489_" class="st61" d="M310.9,149.8c-3,6.9-15.5,3.6-14.2,8.6c0.6,2.4-6.2-9.4-3.1-16.3c3-6.9,9.4-10.7,14.2-8.6
				C312.5,135.7,313.9,143,310.9,149.8z"/>
			<path id="XMLID_488_" class="st55" d="M310.9,149.8c-3,6.9-15.5,3.6-14.2,8.6c0.6,2.4-6.2-9.4-3.1-16.3c3-6.9,9.4-10.7,14.2-8.6
				C312.5,135.7,313.9,143,310.9,149.8z"/>
			<polyline id="XMLID_487_" class="st55" points="260.7,247.7 274.4,253.6 288.1,247.7 301.8,253.6 315.5,247.7 329.2,253.6 
				342.9,247.7 			"/>
			<polyline id="XMLID_486_" class="st55" points="260.7,256.6 274.4,262.5 288.1,256.6 301.8,262.5 315.5,256.6 329.2,262.5 
				342.9,256.6 			"/>
		</g>
		<g id="XMLID_233_">
			<line id="XMLID_483_" class="st55" x1="53.6" y1="265.3" x2="59.7" y2="265.3"/>
			<line id="XMLID_482_" class="st55" x1="431.2" y1="265.3" x2="444.6" y2="265.3"/>
			<line id="XMLID_481_" class="st55" x1="63.7" y1="265.3" x2="427.7" y2="265.3"/>
		</g>
	</g>
</g>
<g id="Layer_1">
</g>
</svg>
