<svg id="Layer_1" data-name="Layer 1" xmlns="http://www.w3.org/2000/svg" viewBox="0 0 473.4 298"><defs><style>.cls-1,.cls-2{fill:#edf0f4;}.cls-2,.cls-9{opacity:0.3;}.cls-3{fill:#00fecb;}.cls-12,.cls-4{fill:#10e8b4;}.cls-5,.cls-7{fill:none;stroke-miterlimit:10;stroke-width:1.5px;}.cls-5{stroke:#414042;}.cls-6{fill:#fff;}.cls-7{stroke:#fff;}.cls-8{fill:#83edd1;}.cls-10{fill:#6d24bf;}.cls-11{fill:#414042;}.cls-12{opacity:0.5;}</style></defs><title>Servicio-Web</title><g id="_Group_" data-name="&lt;Group&gt;"><g id="_Group_2" data-name="&lt;Group&gt;"><path id="_Path_" data-name="&lt;Path&gt;" class="cls-1" d="M417.48,264.22a177.48,177.48,0,0,0-15.33-72.38,56.18,56.18,0,0,0-67.27-78,177.36,177.36,0,0,0-95.54-27.76c-4.37,0-8.72.16-13,.47a45.87,45.87,0,0,0-70.45,20.28,178.77,178.77,0,0,0-37.16,26.32A50.85,50.85,0,0,0,68.11,215a178.13,178.13,0,0,0-6.9,49.23Z"/><path id="_Path_2" data-name="&lt;Path&gt;" class="cls-2" d="M368.74,264.22a129.4,129.4,0,0,0-258.8,0Z"/><path id="_Path_3" data-name="&lt;Path&gt;" class="cls-2" d="M435.49,196.23a10.15,10.15,0,1,1-10.14-10.15A10.14,10.14,0,0,1,435.49,196.23Z"/><circle id="_Path_4" data-name="&lt;Path&gt;" class="cls-2" cx="278.25" cy="69.68" r="15.63" transform="translate(146.31 324.38) rotate(-76.67)"/><path id="_Path_5" data-name="&lt;Path&gt;" class="cls-2" d="M135.53,107.87a6.7,6.7,0,1,1-6.7-6.7A6.7,6.7,0,0,1,135.53,107.87Z"/><circle id="_Path_6" data-name="&lt;Path&gt;" class="cls-2" cx="339.69" cy="95.6" r="6.69"/><path id="_Path_7" data-name="&lt;Path&gt;" class="cls-2" d="M198.76,50.32a6.7,6.7,0,1,1-6.7-6.69A6.7,6.7,0,0,1,198.76,50.32Z"/><path id="_Path_8" data-name="&lt;Path&gt;" class="cls-2" d="M424.43,220.77a2.75,2.75,0,1,1-2.75-2.75A2.75,2.75,0,0,1,424.43,220.77Z"/><path id="_Path_9" data-name="&lt;Path&gt;" class="cls-2" d="M338.59,48.26a2.06,2.06,0,1,1-2.06-2.06A2.06,2.06,0,0,1,338.59,48.26Z"/><circle id="_Path_10" data-name="&lt;Path&gt;" class="cls-2" cx="131.49" cy="58.54" r="2.68"/><path id="_Path_11" data-name="&lt;Path&gt;" class="cls-2" d="M22.53,118.51A3.57,3.57,0,1,1,19,114.94,3.57,3.57,0,0,1,22.53,118.51Z"/><path id="_Path_12" data-name="&lt;Path&gt;" class="cls-2" d="M452.5,144.67a3.57,3.57,0,1,1-3.57-3.57A3.57,3.57,0,0,1,452.5,144.67Z"/><circle id="_Path_13" data-name="&lt;Path&gt;" class="cls-2" cx="76.34" cy="104.05" r="15.15"/><path id="_Path_14" data-name="&lt;Path&gt;" class="cls-2" d="M35.33,214.49a3.57,3.57,0,1,1-3.57-3.57A3.57,3.57,0,0,1,35.33,214.49Z"/><path id="_Path_15" data-name="&lt;Path&gt;" class="cls-2" d="M429.89,107.87A14.69,14.69,0,1,1,415.2,93.18,14.69,14.69,0,0,1,429.89,107.87Z"/><circle id="_Path_16" data-name="&lt;Path&gt;" class="cls-2" cx="31.76" cy="174.21" r="14.43"/></g><g id="_Group_3" data-name="&lt;Group&gt;"><rect id="_Rectangle_" data-name="&lt;Rectangle&gt;" class="cls-3" x="333.17" y="248.65" width="84.05" height="15.8" rx="0.19" ry="0.19"/><path id="_Path_17" data-name="&lt;Path&gt;" class="cls-4" d="M416.87,257.32H333.5a.33.33,0,0,1-.33-.33v7.12a.34.34,0,0,0,.33.34h83.37a.34.34,0,0,0,.34-.34V257A.34.34,0,0,1,416.87,257.32Z"/><g id="_Group_4" data-name="&lt;Group&gt;"><rect id="_Rectangle_2" data-name="&lt;Rectangle&gt;" class="cls-5" x="367.29" y="214.15" width="15.8" height="84.05" rx="0.19" ry="0.19" transform="translate(631.37 -119.01) rotate(90)"/><line id="_Path_18" data-name="&lt;Path&gt;" class="cls-5" x1="341.21" y1="254.76" x2="341.21" y2="248.28"/><line id="_Path_19" data-name="&lt;Path&gt;" class="cls-5" x1="349.61" y1="254.76" x2="349.61" y2="248.28"/><line id="_Path_20" data-name="&lt;Path&gt;" class="cls-5" x1="358.01" y1="248.28" x2="358.01" y2="254.76"/><line id="_Path_21" data-name="&lt;Path&gt;" class="cls-5" x1="366.41" y1="248.28" x2="366.41" y2="254.76"/><line id="_Path_22" data-name="&lt;Path&gt;" class="cls-5" x1="374.81" y1="248.28" x2="374.81" y2="254.76"/><line id="_Path_23" data-name="&lt;Path&gt;" class="cls-5" x1="383.21" y1="254.76" x2="383.21" y2="248.28"/><line id="_Path_24" data-name="&lt;Path&gt;" class="cls-5" x1="391.6" y1="254.76" x2="391.6" y2="248.28"/><line id="_Path_25" data-name="&lt;Path&gt;" class="cls-5" x1="400" y1="248.28" x2="400" y2="254.76"/><line id="_Path_26" data-name="&lt;Path&gt;" class="cls-5" x1="408.4" y1="248.28" x2="408.4" y2="254.76"/></g></g><g id="_Group_5" data-name="&lt;Group&gt;"><path id="_Path_27" data-name="&lt;Path&gt;" class="cls-6" d="M157.74,156.34H65.2a.61.61,0,0,0-.59.63V264.45h93.72V157A.61.61,0,0,0,157.74,156.34Z"/><path id="_Path_28" data-name="&lt;Path&gt;" class="cls-4" d="M157.74,156.34H65.2c-.33,0-.59,0-.59.1V170h93.72V156.44C158.33,156.38,158.07,156.34,157.74,156.34Z"/><path id="_Path_29" data-name="&lt;Path&gt;" class="cls-5" d="M158.55,264.45V157.38a.58.58,0,0,0-.59-.59H65.42a.58.58,0,0,0-.59.59V264.45"/><line id="_Path_30" data-name="&lt;Path&gt;" class="cls-5" x1="158.55" y1="170" x2="64.83" y2="170"/><line id="_Path_31" data-name="&lt;Path&gt;" class="cls-7" x1="77.79" y1="162.91" x2="74.06" y2="162.91"/><line id="_Path_32" data-name="&lt;Path&gt;" class="cls-7" x1="87.72" y1="162.91" x2="84" y2="162.91"/><line id="_Path_33" data-name="&lt;Path&gt;" class="cls-7" x1="97.66" y1="162.91" x2="93.93" y2="162.91"/><rect id="_Rectangle_3" data-name="&lt;Rectangle&gt;" class="cls-8" x="75.94" y="182.4" width="71.01" height="28.22"/><rect id="_Rectangle_4" data-name="&lt;Rectangle&gt;" class="cls-8" x="76.18" y="218.89" width="21.34" height="23.05"/><rect id="_Rectangle_5" data-name="&lt;Rectangle&gt;" class="cls-8" x="100.89" y="218.89" width="21.34" height="23.05"/><rect id="_Rectangle_6" data-name="&lt;Rectangle&gt;" class="cls-8" x="125.61" y="218.89" width="21.34" height="23.05"/></g><line id="_Path_34" data-name="&lt;Path&gt;" class="cls-5" x1="366.51" y1="177.34" x2="402.78" y2="177.34"/><line id="_Path_35" data-name="&lt;Path&gt;" class="cls-5" x1="413.36" y1="177.34" x2="408.29" y2="177.34"/><g id="_Group_6" data-name="&lt;Group&gt;"><line id="_Path_36" data-name="&lt;Path&gt;" class="cls-5" x1="421.68" y1="177.34" x2="430.59" y2="177.34"/><line id="_Path_37" data-name="&lt;Path&gt;" class="cls-5" x1="426.13" y1="181.8" x2="426.13" y2="172.88"/></g><g id="_Group_7" data-name="&lt;Group&gt;"><line id="_Path_38" data-name="&lt;Path&gt;" class="cls-5" x1="174.11" y1="69.68" x2="183.02" y2="69.68"/><line id="_Path_39" data-name="&lt;Path&gt;" class="cls-5" x1="178.57" y1="74.14" x2="178.57" y2="65.23"/></g><g id="_Group_8" data-name="&lt;Group&gt;"><line id="_Path_40" data-name="&lt;Path&gt;" class="cls-5" x1="82.71" y1="115.1" x2="89.01" y2="108.79"/><line id="_Path_41" data-name="&lt;Path&gt;" class="cls-5" x1="89.01" y1="115.1" x2="82.71" y2="108.79"/></g><g id="_Group_9" data-name="&lt;Group&gt;"><line id="_Path_42" data-name="&lt;Path&gt;" class="cls-5" x1="283.44" y1="111.95" x2="289.74" y2="105.64"/><line id="_Path_43" data-name="&lt;Path&gt;" class="cls-5" x1="289.74" y1="111.95" x2="283.44" y2="105.64"/></g><g id="_Group_10" data-name="&lt;Group&gt;"><line id="_Path_44" data-name="&lt;Path&gt;" class="cls-5" x1="398.2" y1="219.08" x2="404.51" y2="212.77"/><line id="_Path_45" data-name="&lt;Path&gt;" class="cls-5" x1="404.51" y1="219.08" x2="398.2" y2="212.77"/></g><line id="_Path_46" data-name="&lt;Path&gt;" class="cls-5" x1="44.58" y1="147.13" x2="97.85" y2="147.13"/><line id="_Path_47" data-name="&lt;Path&gt;" class="cls-5" x1="128.82" y1="96.89" x2="194.86" y2="96.89"/><line id="_Path_48" data-name="&lt;Path&gt;" class="cls-5" x1="299.18" y1="109.08" x2="391.27" y2="109.08"/><line id="_Path_49" data-name="&lt;Path&gt;" class="cls-5" x1="213.22" y1="96.89" x2="203.18" y2="96.89"/><polygon id="_Path_50" data-name="&lt;Path&gt;" class="cls-4" points="237.42 72.13 241.38 69.84 245.34 72.13 245.34 76.7 241.38 78.99 237.42 76.7 237.42 72.13"/><polygon id="_Path_51" data-name="&lt;Path&gt;" class="cls-4" points="44.09 220.63 48.06 218.34 52.02 220.63 52.02 225.2 48.06 227.49 44.09 225.2 44.09 220.63"/><polygon id="_Path_52" data-name="&lt;Path&gt;" class="cls-4" points="371.23 190.84 375.19 188.55 379.15 190.84 379.15 195.41 375.19 197.7 371.23 195.41 371.23 190.84"/><polygon id="_Path_53" data-name="&lt;Path&gt;" class="cls-4" points="104.05 130.03 109.39 126.94 114.73 130.03 114.73 136.2 109.39 139.28 104.05 136.2 104.05 130.03"/><g id="_Group_11" data-name="&lt;Group&gt;"><rect id="_Rectangle_7" data-name="&lt;Rectangle&gt;" class="cls-6" x="178.57" y="233.8" width="87.4" height="30.65"/><rect id="_Rectangle_8" data-name="&lt;Rectangle&gt;" class="cls-8" x="178.57" y="233.8" width="87.4" height="15.33"/><rect id="_Path_54" data-name="&lt;Path&gt;" class="cls-6" x="134.01" y="124.56" width="178.97" height="111.41" rx="4.16" ry="4.16"/><path id="_Path_55" data-name="&lt;Path&gt;" class="cls-4" d="M308.82,124.56a4.15,4.15,0,0,1,4.15,4.16V211H134V128.72a4.16,4.16,0,0,1,4.16-4.16Z"/><g id="_Group_12" data-name="&lt;Group&gt;"><polygon id="_Path_56" data-name="&lt;Path&gt;" class="cls-3" points="166.94 211 189.81 211 276.24 124.56 253.38 124.56 166.94 211"/><polygon id="_Path_57" data-name="&lt;Path&gt;" class="cls-3" points="193.59 124.56 134.01 184.14 134.01 211 154.94 211 241.38 124.56 193.59 124.56"/></g><g id="_Group_13" data-name="&lt;Group&gt;"><rect id="_Path_58" data-name="&lt;Path&gt;" class="cls-5" x="133.83" y="124.56" width="178.97" height="111.41" rx="4.16" ry="4.16"/><line id="_Path_59" data-name="&lt;Path&gt;" class="cls-5" x1="133.83" y1="211.81" x2="312.79" y2="211.81"/><line id="_Path_60" data-name="&lt;Path&gt;" class="cls-5" x1="178.57" y1="235.97" x2="178.57" y2="264.45"/><line id="_Path_61" data-name="&lt;Path&gt;" class="cls-5" x1="265.97" y1="235.97" x2="265.97" y2="264.45"/><line id="_Path_62" data-name="&lt;Path&gt;" class="cls-5" x1="282.53" y1="264.45" x2="162.96" y2="264.45"/></g></g><g id="_Group_14" data-name="&lt;Group&gt;" class="cls-9"><path id="_Path_63" data-name="&lt;Path&gt;" class="cls-4" d="M175.82,226.9a2,2,0,0,0-2-2H158.75v1.56h-4.53l17.05-19.39L163,192.75H132.26v38.84a5.73,5.73,0,0,0,5.72,5.72h37.84Z"/><path id="_Path_64" data-name="&lt;Path&gt;" class="cls-10" d="M175.82,263.79v-1.13H163v3.13h10.87A2,2,0,0,0,175.82,263.79Z"/></g><g id="_Group_15" data-name="&lt;Group&gt;"><path id="_Path_65" data-name="&lt;Path&gt;" class="cls-6" d="M168.62,226.7h-68a.43.43,0,0,0-.43.43V264a.43.43,0,0,0,.43.43h68a.43.43,0,0,0,.43-.43V227.13A.43.43,0,0,0,168.62,226.7Z"/><path id="_Path_66" data-name="&lt;Path&gt;" class="cls-8" d="M157,194.54H113.87l-5.08,8.1-2.58,4.47,28.86,32.83a.23.23,0,0,0,.34,0l28.86-32.83Z"/><path id="_Compound_Path_" data-name="&lt;Compound Path&gt;" class="cls-5" d="M121.08,194.54h35.81l7.25,12.57-28.86,32.83a.22.22,0,0,1-.33,0l-28.86-32.83,2.58-4.47m55.47,4.47h-58m15.7,2.71,13.32,30.31M148,209.82l-12.9,29.55m0-29.55v29.55M119,201.89l2,2.6,7.67-10.41m-.62,1.5,6.8,8.91,7.67-10.41m-.62,1.5,6.79,8.91,7.67-10.41m-43.18-7.64v3.79m3.73,2.15,3.28-1.9m0,8.09-3.29-1.88m-3.72,2.16,0,3.79m-3.76-5.92-3.27,1.91m-.05-8.09,3.29,1.87m6.77,34.29H100.61a.43.43,0,0,0-.43.43V264a.43.43,0,0,0,.43.43h68a.43.43,0,0,0,.43-.43V227.13a.43.43,0,0,0-.43-.43H153.54m-47.76,7.62h4.88m0,9.76h-4.88m13.54,0h-4.88m13.54,0H123.1m13.54,0h-4.88m13.53,0h-4.87m13.53,0h-4.87m13.53,0h-4.88M105.78,251h4.88m3.78,0h4.88m3.78,0H128m3.78,0h4.88m3.78,0h4.87m3.79,0H154m3.78,0h4.88m-52,6.89h-4.88m13.54,0h-4.88m8.45,0h22.4m8.66,0h-4.87m13.53,0h-4.88m-43.29-23.53h4.88m29.76,0H154m3.78,0h4.88"/></g><g id="_Group_16" data-name="&lt;Group&gt;"><line id="_Path_67" data-name="&lt;Path&gt;" class="cls-5" x1="48.06" y1="264.45" x2="432.14" y2="264.45"/><line id="_Path_68" data-name="&lt;Path&gt;" class="cls-5" x1="437.8" y1="264.45" x2="443.47" y2="264.45"/><line id="_Path_69" data-name="&lt;Path&gt;" class="cls-5" x1="42.42" y1="264.45" x2="32.8" y2="264.45"/></g><g id="_Group_17" data-name="&lt;Group&gt;" class="cls-9"><path id="_Path_70" data-name="&lt;Path&gt;" class="cls-10" d="M282.53,262.66H269.71v.2a2,2,0,0,0,2,2h10.84Z"/><path id="_Path_71" data-name="&lt;Path&gt;" class="cls-4" d="M271.69,182.82a2,2,0,0,0-2,2v52.5h38.92a5.73,5.73,0,0,0,5.72-5.72V182.82Z"/></g><g id="_Group_18" data-name="&lt;Group&gt;"><rect id="_Rectangle_9" data-name="&lt;Rectangle&gt;" class="cls-4" x="276.89" y="184.61" width="77.63" height="13.76"/><rect id="_Rectangle_10" data-name="&lt;Rectangle&gt;" class="cls-6" x="276.89" y="198.38" width="77.63" height="66.07"/><rect id="_Rectangle_11" data-name="&lt;Rectangle&gt;" class="cls-5" x="276.32" y="184.78" width="78.89" height="78.56" rx="0.2" ry="0.2" transform="translate(539.82 -91.7) rotate(90)"/><line id="_Path_72" data-name="&lt;Path&gt;" class="cls-5" x1="355.04" y1="198.38" x2="276.89" y2="198.38"/><line id="_Path_73" data-name="&lt;Path&gt;" class="cls-7" x1="283.8" y1="190.99" x2="287.6" y2="190.99"/><line id="_Path_74" data-name="&lt;Path&gt;" class="cls-7" x1="291.85" y1="190.99" x2="295.66" y2="190.99"/><line id="_Path_75" data-name="&lt;Path&gt;" class="cls-7" x1="299.91" y1="190.99" x2="303.71" y2="190.99"/><line id="_Path_76" data-name="&lt;Path&gt;" class="cls-5" x1="286.22" y1="212.81" x2="291.07" y2="212.81"/><line id="_Path_77" data-name="&lt;Path&gt;" class="cls-5" x1="297.37" y1="212.81" x2="325.35" y2="212.81"/><line id="_Path_78" data-name="&lt;Path&gt;" class="cls-5" x1="339.09" y1="212.81" x2="330.53" y2="212.81"/><line id="_Path_79" data-name="&lt;Path&gt;" class="cls-5" x1="286.22" y1="222.55" x2="291.07" y2="222.55"/><line id="_Path_80" data-name="&lt;Path&gt;" class="cls-5" x1="296.83" y1="222.55" x2="309.06" y2="222.55"/><line id="_Path_81" data-name="&lt;Path&gt;" class="cls-5" x1="314.76" y1="222.55" x2="346.53" y2="222.55"/><line id="_Path_82" data-name="&lt;Path&gt;" class="cls-5" x1="286.22" y1="232.29" x2="291.07" y2="232.29"/><line id="_Path_83" data-name="&lt;Path&gt;" class="cls-5" x1="297.4" y1="232.29" x2="326.29" y2="232.29"/><line id="_Path_84" data-name="&lt;Path&gt;" class="cls-5" x1="291.07" y1="242.02" x2="286.22" y2="242.02"/><line id="_Path_85" data-name="&lt;Path&gt;" class="cls-5" x1="315.94" y1="242.02" x2="297.06" y2="242.02"/><line id="_Path_86" data-name="&lt;Path&gt;" class="cls-5" x1="321.29" y1="242.02" x2="336.82" y2="242.02"/><line id="_Path_87" data-name="&lt;Path&gt;" class="cls-5" x1="291.07" y1="251.76" x2="286.22" y2="251.76"/><line id="_Path_88" data-name="&lt;Path&gt;" class="cls-5" x1="330.53" y1="251.76" x2="297.37" y2="251.76"/><line id="_Path_89" data-name="&lt;Path&gt;" class="cls-5" x1="339.41" y1="251.76" x2="333.12" y2="251.76"/></g><g id="_Group_19" data-name="&lt;Group&gt;"><path id="_Path_90" data-name="&lt;Path&gt;" class="cls-6" d="M379.58,164.51a.07.07,0,0,1-.07.07H346.08l-13.5,10.73a.33.33,0,0,1-.54-.26V164.58H325a.07.07,0,0,1-.07-.07V127a.07.07,0,0,1,.07-.07h54.14a.49.49,0,0,1,.49.49Z"/><path id="_Path_91" data-name="&lt;Path&gt;" class="cls-8" d="M373,134a.49.49,0,0,0-.5-.49H324.88V127a.07.07,0,0,1,.07-.07h54.14a.49.49,0,0,1,.49.49v37.14a.07.07,0,0,1-.07.07H373Z"/><path id="_Path_92" data-name="&lt;Path&gt;" class="cls-5" d="M379.58,127.37a.49.49,0,0,0-.49-.49H325a.07.07,0,0,0-.07.07v37.56a.07.07,0,0,0,.07.07H332v10.47a.33.33,0,0,0,.54.26l13.5-10.73h33.43a.07.07,0,0,0,.07-.07Z"/><g id="_Group_20" data-name="&lt;Group&gt;"><path id="_Compound_Path_2" data-name="&lt;Compound Path&gt;" class="cls-11" d="M336,147v-2.42l8.58-4v2.59l-5.67,2.62,5.67,2.68v2.61Z"/><path id="_Compound_Path_3" data-name="&lt;Compound Path&gt;" class="cls-11" d="M353.74,138.58h2.5l-7.41,16.19h-2.49Z"/><path id="_Compound_Path_4" data-name="&lt;Compound Path&gt;" class="cls-11" d="M366.59,144.62V147l-8.58,4v-2.61l5.67-2.68L358,143.17v-2.59Z"/></g></g><path id="_Path_93" data-name="&lt;Path&gt;" class="cls-12" d="M376.85,241.31V234.8l-5.45-1.48a20.8,20.8,0,0,0-2.54-6.14l3.25-5.31-4.6-4.6-.12.07-.08-.09L362,220.4a20.4,20.4,0,0,0-6-2.48l-1.5-5.91h-.2v0h-6.51l-1.49,5.91a20.53,20.53,0,0,0-6,2.47l-5.06-3-.07.07-.13-.09-4.62,4.59,3.05,5.19a20.44,20.44,0,0,0-2.55,6.12L325.49,235v6.51l5.45,1.28a20.73,20.73,0,0,0,2.53,6.14l-3.27,5,4.59,4.61.12-.07.09.09,5.29-2.86a20.53,20.53,0,0,0,6,2.49l1.52,6.26h.2v0h6.5l1.47-6.26A20.65,20.65,0,0,0,362,255.7l5.27,3.09.07-.06.14.08,4.6-4.6-3.27-5.27a20.39,20.39,0,0,0,2.55-6.13Z"/><g id="_Group_21" data-name="&lt;Group&gt;"><path id="_Path_94" data-name="&lt;Path&gt;" class="cls-6" d="M382.06,241.31V234.8l-5.45-1.48a20.28,20.28,0,0,0-2.54-6.14l3.25-5.31-4.6-4.6-5.36,3.19a20.85,20.85,0,0,0-6.13-2.54l-1.5-5.91h-6.51l-1.49,5.91a20.39,20.39,0,0,0-6.08,2.51l-5.18-3.07L335.87,222l3.05,5.19a20.44,20.44,0,0,0-2.55,6.12L330.91,235v6.51l5.44,1.28a20.59,20.59,0,0,0,2.54,6.13l-3.27,5,4.59,4.61,5.38-2.91a20.63,20.63,0,0,0,6.13,2.56l1.52,6.26h6.51l1.47-6.26a20.33,20.33,0,0,0,6.13-2.54l5.39,3.16,4.61-4.6-3.27-5.27a20.12,20.12,0,0,0,2.54-6.13Z"/><path id="_Path_95" data-name="&lt;Path&gt;" class="cls-4" d="M365,237.92a9.17,9.17,0,1,1-9.17-9.17A9.18,9.18,0,0,1,365,237.92Z"/><path id="_Compound_Path_5" data-name="&lt;Compound Path&gt;" class="cls-5" d="M368.53,228.27l-12.4,12.4-6.2-6.2m10.29-4.57a9.17,9.17,0,1,0,4.73,8m16.91,3.37v-6.51l-5.44-1.48a20.91,20.91,0,0,0-2.54-6.14l3.25-5.3-4.6-4.61-5.37,3.2A20.61,20.61,0,0,0,361,217.9l-1.5-5.91H353l-1.5,5.91a20.36,20.36,0,0,0-6.08,2.52l-5.17-3.08-4.61,4.59,3.05,5.19a20.46,20.46,0,0,0-2.56,6.12L330.71,235l0,6.51,5.45,1.28a20.73,20.73,0,0,0,2.53,6.14l-3.27,5,4.6,4.61,5.38-2.91a20.16,20.16,0,0,0,6.13,2.56l1.52,6.26h6.5l1.47-6.26a20.28,20.28,0,0,0,6.14-2.54l5.39,3.16,4.6-4.6-3.27-5.27a20.44,20.44,0,0,0,2.55-6.12Zm-24.29-21.92H354.8m13.73,4.55,2,2M375,239.62v-2.78m-6.52,15.69,2-2M354.76,257h2.77m-13.72-4.57-2-2m-4.51-11v-2.78m6.55-12.9-2,2"/></g></g></svg>