<svg id="Layer_1" data-name="Layer 1" xmlns="http://www.w3.org/2000/svg" viewBox="0 0 473.4 298"><defs><style>.cls-1{fill:#edf0f4;}.cls-2{fill:#fff;}.cls-3{fill:#10e8b4;}.cls-4,.cls-7{fill:none;stroke:#414042;stroke-miterlimit:10;stroke-width:1.5px;}.cls-5{fill:#8feaf7;}.cls-6{fill:#00d4ff;}.cls-7{stroke-linecap:round;}.cls-13,.cls-8{fill:#414042;}.cls-9{fill:#bcbec0;}.cls-10{fill:#e6e7e8;}.cls-11{fill:#f1f2f2;}.cls-12{fill:#58595b;}.cls-13{opacity:0.3;}.cls-14{fill:#ffb936;}.cls-15{fill:#ffe3af;opacity:0.46;}</style></defs><title>Servicio-Digital</title><g id="_Group_" data-name="&lt;Group&gt;"><path id="_Path_" data-name="&lt;Path&gt;" class="cls-1" d="M71.27,70.7H384.35a19,19,0,0,1,19,19h0a19,19,0,0,1-19,19H348.68a16.53,16.53,0,0,0-16.53,16.53h0a16.53,16.53,0,0,0,16.53,16.53h95.75A18.27,18.27,0,0,1,462.71,160h0a18.27,18.27,0,0,1-18.28,18.27h-48a33.11,33.11,0,0,1-33.12,33.11h0A14.63,14.63,0,0,0,348.72,226v39H138.52v-3.21a35.48,35.48,0,0,0-35.12-35.48l-72.65-.72a20.26,20.26,0,0,1-20.06-20.26h0A20.27,20.27,0,0,1,31,185.05h72.51a33.41,33.41,0,0,1,33.41-33.4h2.83A20.33,20.33,0,0,0,160,131.32h0A20.33,20.33,0,0,0,139.7,111H71.27A20.15,20.15,0,0,1,51.13,90.84h0A20.14,20.14,0,0,1,71.27,70.7Z"/><g id="_Group_2" data-name="&lt;Group&gt;"><g id="_Group_3" data-name="&lt;Group&gt;"><rect id="_Rectangle_" data-name="&lt;Rectangle&gt;" class="cls-2" x="124.39" y="197.92" width="46.22" height="46.22" rx="1.06" ry="1.06" transform="translate(73.27 -34.12) rotate(17.5)"/><rect id="_Rectangle_2" data-name="&lt;Rectangle&gt;" class="cls-3" x="130.23" y="203.26" width="34.53" height="32.52" transform="translate(72.82 -34.19) rotate(17.5)"/><path id="_Path_2" data-name="&lt;Path&gt;" class="cls-4" d="M127.67,207.07l3.89-12.34a2.82,2.82,0,0,1,3.54-1.84l7.47,2.7"/></g><g id="_Group_4" data-name="&lt;Group&gt;"><rect id="_Rectangle_3" data-name="&lt;Rectangle&gt;" class="cls-5" x="64.64" y="199.34" width="49.96" height="35.14" rx="1.56" ry="1.56" transform="matrix(0.98, -0.22, 0.22, 0.98, -45.42, 24.96)"/><path id="_Path_3" data-name="&lt;Path&gt;" class="cls-6" d="M110.14,194.29,90.48,216a1.82,1.82,0,0,1-2,.46l-27-11.17Z"/><path id="_Path_4" data-name="&lt;Path&gt;" class="cls-4" d="M61.91,205.46l26.53,11a1.82,1.82,0,0,0,2-.46l19-21"/><path id="_Path_5" data-name="&lt;Path&gt;" class="cls-4" d="M68.15,235.3l-6.28-27.93a2.17,2.17,0,0,1,1.64-2.59l4.56-1"/><path id="_Path_6" data-name="&lt;Path&gt;" class="cls-4" d="M80,201.07,108,194.76a2.17,2.17,0,0,1,2.59,1.64l2.4,10.67"/><line id="_Path_7" data-name="&lt;Path&gt;" class="cls-4" x1="71.92" y1="202.88" x2="77.16" y2="201.7"/></g><path id="_Path_8" data-name="&lt;Path&gt;" class="cls-2" d="M164,239.91h-.44a16.14,16.14,0,0,0-24.23-9.09,22.1,22.1,0,0,0-42.95-3.18,15.14,15.14,0,0,0-18.93,12.27H75a11.38,11.38,0,0,0-11.34,11.34v.84A11.37,11.37,0,0,0,75,263.43h89a11.37,11.37,0,0,0,11.34-11.34v-.84A11.38,11.38,0,0,0,164,239.91Z"/><path id="_Path_9" data-name="&lt;Path&gt;" class="cls-4" d="M139.35,230.82a22.1,22.1,0,0,0-42.95-3.18,15.14,15.14,0,0,0-18.93,12.27H75a11.38,11.38,0,0,0-11.34,11.34v.84A11.37,11.37,0,0,0,75,263.43h89"/><path id="_Path_10" data-name="&lt;Path&gt;" class="cls-4" d="M131.93,229a18.42,18.42,0,0,0-24.84-5.83"/><path id="_Path_11" data-name="&lt;Path&gt;" class="cls-4" d="M92.74,227a7.87,7.87,0,0,1,7.87,7.87"/><g id="_Group_5" data-name="&lt;Group&gt;"><path id="_Path_12" data-name="&lt;Path&gt;" class="cls-2" d="M118,184.08c.29,1.67-1.44,3.36-3.86,3.78s-4.61-.6-4.9-2.27,1.44-3.36,3.86-3.78S117.67,182.41,118,184.08Z"/><path id="_Path_13" data-name="&lt;Path&gt;" class="cls-4" d="M118,184.08c.29,1.67-1.44,3.36-3.86,3.78s-4.61-.6-4.9-2.27,1.44-3.36,3.86-3.78S117.67,182.41,118,184.08Z"/><path id="_Path_14" data-name="&lt;Path&gt;" class="cls-2" d="M130.38,184.08c.29,1.67-1.44,3.36-3.86,3.78s-4.62-.6-4.9-2.27,1.43-3.36,3.85-3.78S130.09,182.41,130.38,184.08Z"/><path id="_Path_15" data-name="&lt;Path&gt;" class="cls-4" d="M130.38,184.08c.29,1.67-1.44,3.36-3.86,3.78s-4.62-.6-4.9-2.27,1.43-3.36,3.85-3.78S130.09,182.41,130.38,184.08Z"/><polyline id="_Path_16" data-name="&lt;Path&gt;" class="cls-4" points="117.99 184.44 117.99 168.78 130.41 168.78 130.41 184.44"/></g></g><g id="_Group_6" data-name="&lt;Group&gt;"><line id="_Path_17" data-name="&lt;Path&gt;" class="cls-7" x1="215.51" y1="63.64" x2="224.84" y2="63.64"/><line id="_Path_18" data-name="&lt;Path&gt;" class="cls-7" x1="220.18" y1="68.3" x2="220.18" y2="58.97"/></g><g id="_Group_7" data-name="&lt;Group&gt;"><line id="_Path_19" data-name="&lt;Path&gt;" class="cls-7" x1="78.59" y1="88.25" x2="87.92" y2="88.25"/><line id="_Path_20" data-name="&lt;Path&gt;" class="cls-7" x1="83.26" y1="92.92" x2="83.26" y2="83.59"/></g><g id="_Group_8" data-name="&lt;Group&gt;"><line id="_Path_21" data-name="&lt;Path&gt;" class="cls-7" x1="434.16" y1="186.27" x2="443.49" y2="186.27"/><line id="_Path_22" data-name="&lt;Path&gt;" class="cls-7" x1="438.83" y1="190.93" x2="438.83" y2="181.6"/></g><g id="_Group_9" data-name="&lt;Group&gt;"><line id="_Path_23" data-name="&lt;Path&gt;" class="cls-7" x1="399.93" y1="124.88" x2="406.52" y2="118.28"/><line id="_Path_24" data-name="&lt;Path&gt;" class="cls-7" x1="406.52" y1="124.88" x2="399.93" y2="118.28"/></g><g id="_Group_10" data-name="&lt;Group&gt;"><line id="_Path_25" data-name="&lt;Path&gt;" class="cls-7" x1="76.66" y1="177.7" x2="83.26" y2="171.1"/><line id="_Path_26" data-name="&lt;Path&gt;" class="cls-7" x1="83.26" y1="177.7" x2="76.66" y2="171.1"/></g><line id="_Path_27" data-name="&lt;Path&gt;" class="cls-4" x1="197.94" y1="44.56" x2="298.85" y2="44.56"/><line id="_Path_28" data-name="&lt;Path&gt;" class="cls-4" x1="160.07" y1="63.82" x2="198.05" y2="63.82"/><line id="_Path_29" data-name="&lt;Path&gt;" class="cls-4" x1="355.19" y1="121.58" x2="393.17" y2="121.58"/><line id="_Path_30" data-name="&lt;Path&gt;" class="cls-4" x1="209.11" y1="63.82" x2="201.32" y2="63.82"/><path id="_Path_31" data-name="&lt;Path&gt;" class="cls-8" d="M410.89,205.42a2.79,2.79,0,1,1-2.79-2.78A2.79,2.79,0,0,1,410.89,205.42Z"/><path id="_Path_32" data-name="&lt;Path&gt;" class="cls-8" d="M314.16,63.64a2.79,2.79,0,1,1-2.79-2.79A2.78,2.78,0,0,1,314.16,63.64Z"/><path id="_Path_33" data-name="&lt;Path&gt;" class="cls-8" d="M50.92,145.08a2.79,2.79,0,1,1-2.79-2.79A2.79,2.79,0,0,1,50.92,145.08Z"/><path id="_Path_34" data-name="&lt;Path&gt;" class="cls-8" d="M352.83,101a1.75,1.75,0,1,1-1.75-1.75A1.74,1.74,0,0,1,352.83,101Z"/><path id="_Path_35" data-name="&lt;Path&gt;" class="cls-8" d="M132.16,56.94a1.75,1.75,0,1,1-1.75-1.75A1.76,1.76,0,0,1,132.16,56.94Z"/><g id="_Group_11" data-name="&lt;Group&gt;"><path id="_Path_36" data-name="&lt;Path&gt;" class="cls-9" d="M323.32,263.43V95.79a8,8,0,0,0-8-8.08H196.92a8,8,0,0,0-8,8.08V263.43Z"/><path id="_Path_37" data-name="&lt;Path&gt;" class="cls-9" d="M188.91,114.37V94.45a6.74,6.74,0,0,1,6.74-6.74H316.59a6.73,6.73,0,0,1,6.73,6.74v19.92Z"/><path id="_Path_38" data-name="&lt;Path&gt;" class="cls-4" d="M188.91,167.38V94.45a6.74,6.74,0,0,1,6.74-6.74h17.84"/><path id="_Path_39" data-name="&lt;Path&gt;" class="cls-4" d="M236.85,87.71h79.74a6.73,6.73,0,0,1,6.73,6.74v30.37"/><line id="_Path_40" data-name="&lt;Path&gt;" class="cls-4" x1="220.01" y1="87.71" x2="229.25" y2="87.71"/><line id="_Path_41" data-name="&lt;Path&gt;" class="cls-4" x1="188.91" y1="114.73" x2="323.32" y2="114.73"/><line id="_Path_42" data-name="&lt;Path&gt;" class="cls-4" x1="198.45" y1="97.27" x2="201.87" y2="97.27"/><line id="_Path_43" data-name="&lt;Path&gt;" class="cls-4" x1="206.98" y1="97.27" x2="210.39" y2="97.27"/><line id="_Path_44" data-name="&lt;Path&gt;" class="cls-4" x1="215.5" y1="97.27" x2="218.91" y2="97.27"/><rect id="_Rectangle_4" data-name="&lt;Rectangle&gt;" class="cls-2" x="192.95" y="124.35" width="125.94" height="139.08"/><rect id="_Rectangle_5" data-name="&lt;Rectangle&gt;" class="cls-2" x="231.67" y="102.47" width="71.43" height="4.89"/><rect id="_Rectangle_6" data-name="&lt;Rectangle&gt;" class="cls-2" x="211.57" y="102.47" width="16.17" height="4.89" transform="translate(439.32 209.83) rotate(180)"/><rect id="_Rectangle_7" data-name="&lt;Rectangle&gt;" class="cls-2" x="198.45" y="102.47" width="10.23" height="4.89"/><rect id="_Rectangle_8" data-name="&lt;Rectangle&gt;" class="cls-3" x="201.2" y="132.29" width="37.99" height="51.13"/><rect id="_Rectangle_9" data-name="&lt;Rectangle&gt;" class="cls-10" x="248.39" y="132.29" width="62.98" height="75.56"/><rect id="_Rectangle_10" data-name="&lt;Rectangle&gt;" class="cls-11" x="248.39" y="220.26" width="62.98" height="12.41"/><path id="_Path_45" data-name="&lt;Path&gt;" class="cls-12" d="M217,198.84H203.75a1.88,1.88,0,0,1-1.88-1.88h0a1.88,1.88,0,0,1,1.88-1.88H217a1.88,1.88,0,0,1,1.88,1.88h0A1.88,1.88,0,0,1,217,198.84Z"/><path id="_Path_46" data-name="&lt;Path&gt;" class="cls-6" d="M235.89,198.84H222.6a1.88,1.88,0,0,1-1.88-1.88h0a1.88,1.88,0,0,1,1.88-1.88h13.29a1.88,1.88,0,0,1,1.88,1.88h0A1.88,1.88,0,0,1,235.89,198.84Z"/></g><path id="_Path_47" data-name="&lt;Path&gt;" class="cls-13" d="M318.89,263.43h4.43V127.81H298.55a9.82,9.82,0,0,0-9.7,8.28,11.62,11.62,0,0,0-10.08,11.5v16a8.21,8.21,0,0,0,1.54,4.78,5.29,5.29,0,0,0-1.54,3.73v3.54a5.23,5.23,0,0,0,6.73,5.07A29.44,29.44,0,0,0,305.14,205v.39a43.77,43.77,0,0,0-12.59,5l.84,1.42a39.7,39.7,0,0,0-5.77,4.18l-1.09-1.24a36,36,0,0,0-7.59,9.24l1.46.83a30.37,30.37,0,0,0-2.79,6.63L276,231a30.43,30.43,0,0,0-1.17,8.37v24.09Z"/><g id="_Group_12" data-name="&lt;Group&gt;"><path id="_Path_48" data-name="&lt;Path&gt;" class="cls-2" d="M354,175.62a3.66,3.66,0,0,1-3.66,3.66h0a3.66,3.66,0,0,1-3.65-3.66v-3.54a3.66,3.66,0,0,1,3.65-3.65h0a3.66,3.66,0,0,1,3.66,3.65Z"/><path id="_Path_49" data-name="&lt;Path&gt;" class="cls-4" d="M354,175.62a3.66,3.66,0,0,1-3.66,3.66h0a3.66,3.66,0,0,1-3.65-3.66v-3.54a3.66,3.66,0,0,1,3.65-3.65h0a3.66,3.66,0,0,1,3.66,3.65Z"/><path id="_Path_50" data-name="&lt;Path&gt;" class="cls-2" d="M292.08,175.62a3.66,3.66,0,0,1-3.66,3.66h0a3.66,3.66,0,0,1-3.65-3.66v-3.54a3.66,3.66,0,0,1,3.65-3.65h0a3.66,3.66,0,0,1,3.66,3.65Z"/><path id="_Path_51" data-name="&lt;Path&gt;" class="cls-4" d="M292.08,175.62a3.66,3.66,0,0,1-3.66,3.66h0a3.66,3.66,0,0,1-3.65-3.66v-3.54a3.66,3.66,0,0,1,3.65-3.65h0a3.66,3.66,0,0,1,3.66,3.65Z"/><path id="_Path_52" data-name="&lt;Path&gt;" class="cls-6" d="M358.88,263.43V239.34c0-18.42-17.57-33.49-39-33.49h0c-21.47,0-39,15.07-39,33.49v24.09Z"/><path id="_Path_53" data-name="&lt;Path&gt;" class="cls-4" d="M281.93,231.42a29,29,0,0,0-1.11,7.92v24.09"/><path id="_Path_54" data-name="&lt;Path&gt;" class="cls-4" d="M292,216a34.21,34.21,0,0,0-7.25,8.82"/><path id="_Path_55" data-name="&lt;Path&gt;" class="cls-4" d="M345.06,213.83a42.79,42.79,0,0,0-25.21-8h0a43.38,43.38,0,0,0-22.1,5.93"/><line id="_Path_56" data-name="&lt;Path&gt;" class="cls-4" x1="302.91" y1="237.02" x2="302.91" y2="263.43"/><line id="_Path_57" data-name="&lt;Path&gt;" class="cls-4" x1="337.09" y1="237.02" x2="337.09" y2="263.43"/><path id="_Path_58" data-name="&lt;Path&gt;" class="cls-2" d="M318.44,219.39h0a7.3,7.3,0,0,1-7.3-7.3V195.64a6.27,6.27,0,0,1,6.27-6.27h2.07a6.27,6.27,0,0,1,6.26,6.27v16.45A7.3,7.3,0,0,1,318.44,219.39Z"/><path id="_Path_59" data-name="&lt;Path&gt;" class="cls-4" d="M318.44,219.39h0a7.3,7.3,0,0,1-7.3-7.3V195.64a6.27,6.27,0,0,1,6.27-6.27h2.07a6.27,6.27,0,0,1,6.26,6.27v16.45A7.3,7.3,0,0,1,318.44,219.39Z"/><path id="_Path_60" data-name="&lt;Path&gt;" class="cls-2" d="M319.05,205h0a27.85,27.85,0,0,1-27.77-27.76V158.41c0-15.27,12.5-14.92,27.77-14.92h0c15.26,0,27.76-.35,27.76,14.92v18.82A27.85,27.85,0,0,1,319.05,205Z"/><path id="_Path_61" data-name="&lt;Path&gt;" class="cls-4" d="M319.05,205h0a27.85,27.85,0,0,1-27.77-27.76V158.41c0-15.27,12.5-14.92,27.77-14.92h0c15.26,0,27.76-.35,27.76,14.92v18.82A27.85,27.85,0,0,1,319.05,205Z"/><path id="_Path_62" data-name="&lt;Path&gt;" class="cls-14" d="M291.42,170.22h0a6.65,6.65,0,0,1-6.65-6.65v-16a10,10,0,0,1,10-10h0a8.18,8.18,0,0,1,8.18-8.18h40.38a9.89,9.89,0,0,1,9.89,9.89v24a6.16,6.16,0,0,1-6.54,6.15h0V153.64s-4.56,7.45-18.91,7.43a50.88,50.88,0,0,1-28.63-8.58,14.63,14.63,0,0,1-3.39,4.41,4.7,4.7,0,0,1-4.29,1.22Z"/><path id="_Path_63" data-name="&lt;Path&gt;" class="cls-15" d="M291.42,170.22v-12.1a4.7,4.7,0,0,0,4.29-1.22,14.63,14.63,0,0,0,3.39-4.41s22.8,12,36.37,7.54c-14.75-6.35-33.87-10.2-37.05-29.24a8.18,8.18,0,0,0-3.69,6.84,10,10,0,0,0-10,10v16A6.65,6.65,0,0,0,291.42,170.22Z"/><path id="_Path_64" data-name="&lt;Path&gt;" class="cls-4" d="M346.64,153.64v15.84h0a6.16,6.16,0,0,0,6.54-6.15v-24a9.89,9.89,0,0,0-9.89-9.89H302.91a8.18,8.18,0,0,0-8.18,8.18h0a10,10,0,0,0-10,10v16a6.65,6.65,0,0,0,6.65,6.65h0v-12.1a4.7,4.7,0,0,0,4.29-1.22,14.63,14.63,0,0,0,3.39-4.41"/><path id="_Path_65" data-name="&lt;Path&gt;" class="cls-4" d="M295.21,149.83s15.17,11.22,32.52,11.24c14.35,0,20.87-9.86,20.87-9.86"/></g><path id="_Path_66" data-name="&lt;Path&gt;" class="cls-13" d="M209.71,258.33V177.77A6.74,6.74,0,0,0,203,171H188.91v92.39h18.42A6.68,6.68,0,0,0,209.71,258.33Z"/><g id="_Group_13" data-name="&lt;Group&gt;"><g id="_Group_14" data-name="&lt;Group&gt;"><rect id="_Rectangle_11" data-name="&lt;Rectangle&gt;" class="cls-2" x="146.68" y="172.67" width="57.03" height="90.76" rx="1.99" ry="1.99"/><path id="_Path_67" data-name="&lt;Path&gt;" class="cls-4" d="M166.36,172.67h32.25a5.1,5.1,0,0,1,5.1,5.1v80.56a5.1,5.1,0,0,1-5.1,5.1H151.78a5.11,5.11,0,0,1-5.1-5.1V177.77a5.11,5.11,0,0,1,5.1-5.1h3.13"/><line id="_Path_68" data-name="&lt;Path&gt;" class="cls-4" x1="157.88" y1="172.67" x2="164.22" y2="172.67"/><line id="_Path_69" data-name="&lt;Path&gt;" class="cls-4" x1="166.76" y1="179.51" x2="183.64" y2="179.51"/><path id="_Path_70" data-name="&lt;Path&gt;" class="cls-4" d="M177.93,256a2.74,2.74,0,1,1-2.73-2.74A2.73,2.73,0,0,1,177.93,256Z"/><rect id="_Rectangle_12" data-name="&lt;Rectangle&gt;" class="cls-3" x="152.39" y="185.77" width="45.62" height="64.29"/></g></g><g id="_Group_15" data-name="&lt;Group&gt;"><path id="_Path_71" data-name="&lt;Path&gt;" class="cls-2" d="M177.52,156l-3.28-17.75A33.81,33.81,0,1,0,161.36,153Z"/><path id="_Path_72" data-name="&lt;Path&gt;" class="cls-4" d="M113.06,138.87A33.61,33.61,0,0,0,161.36,153l16.16,3-3.28-17.75a33.6,33.6,0,0,0-4.57-34.92"/><path id="_Path_73" data-name="&lt;Path&gt;" class="cls-4" d="M156.94,93.6a33.72,33.72,0,0,0-44.45,17.78"/><path id="_Path_74" data-name="&lt;Path&gt;" class="cls-4" d="M167.41,100.77a33.7,33.7,0,0,0-7.1-5.47"/><ellipse id="_Path_75" data-name="&lt;Path&gt;" class="cls-3" cx="143.68" cy="124.49" rx="25.99" ry="25.39"/><g id="_Group_16" data-name="&lt;Group&gt;"><path id="_Path_76" data-name="&lt;Path&gt;" class="cls-4" d="M158.84,127.29h4.09a2.41,2.41,0,0,0,2.4-2.4h0a2.4,2.4,0,0,0-2.4-2.39h-4.09"/><path id="_Path_77" data-name="&lt;Path&gt;" class="cls-4" d="M154.63,132.08h5.78a2.41,2.41,0,0,0,2.4-2.4h0a2.4,2.4,0,0,0-2.4-2.39h-5.78"/><path id="_Path_78" data-name="&lt;Path&gt;" class="cls-4" d="M155.64,132.08h2.26a2.41,2.41,0,0,1,2.4,2.4h0a2.4,2.4,0,0,1-2.4,2.39H144.27a2.3,2.3,0,0,1-1.64-.68l-2.38-2.44a2,2,0,0,0-1.38-.58h-.58"/><path id="_Path_79" data-name="&lt;Path&gt;" class="cls-4" d="M154.63,122.5H162a2.41,2.41,0,0,0,2.4-2.4h0a2.41,2.41,0,0,0-2.4-2.4H147.09s2-5,2-7.33c0-1.08.25-3.25-.41-4.29a2.59,2.59,0,0,0-2.46,0s-1.82,5.64-3,7.29c-.69.94-3.31,4.34-3.31,4.34h-2.53"/><path id="_Path_80" data-name="&lt;Path&gt;" class="cls-4" d="M132.88,115.1h2.92a2,2,0,0,1,2,2V133.5a2,2,0,0,1-2,2H124.46"/></g><line id="_Path_81" data-name="&lt;Path&gt;" class="cls-4" x1="122.29" y1="135.49" x2="78.48" y2="135.49"/><line id="_Path_82" data-name="&lt;Path&gt;" class="cls-4" x1="127.89" y1="128.69" x2="102.1" y2="128.69"/><line id="_Path_83" data-name="&lt;Path&gt;" class="cls-4" x1="93.77" y1="128.69" x2="99.92" y2="128.69"/><line id="_Path_84" data-name="&lt;Path&gt;" class="cls-4" x1="128.61" y1="121.9" x2="71.73" y2="121.9"/><line id="_Path_85" data-name="&lt;Path&gt;" class="cls-4" x1="131.93" y1="115.1" x2="71.94" y2="115.1"/></g><g id="_Group_17" data-name="&lt;Group&gt;"><rect id="_Rectangle_13" data-name="&lt;Rectangle&gt;" class="cls-2" x="340.94" y="218.05" width="67.16" height="45.37" rx="0.7" ry="0.7"/><rect id="_Rectangle_14" data-name="&lt;Rectangle&gt;" class="cls-4" x="340.94" y="218.05" width="67.16" height="45.37" rx="0.7" ry="0.7"/><path id="_Path_86" data-name="&lt;Path&gt;" class="cls-3" d="M380.39,236.86,369.71,243a1,1,0,0,1-1.51-.87V229.82a1,1,0,0,1,1.51-.87l10.68,6.17A1,1,0,0,1,380.39,236.86Z"/><line id="_Path_87" data-name="&lt;Path&gt;" class="cls-4" x1="348.43" y1="255.13" x2="399.93" y2="255.13"/><line id="_Path_88" data-name="&lt;Path&gt;" class="cls-4" x1="359.95" y1="259.23" x2="359.95" y2="251.04"/></g><g id="_Group_18" data-name="&lt;Group&gt;"><line id="_Path_89" data-name="&lt;Path&gt;" class="cls-4" x1="45.14" y1="263.43" x2="51.12" y2="263.43"/><line id="_Path_90" data-name="&lt;Path&gt;" class="cls-4" x1="416.11" y1="263.43" x2="429.31" y2="263.43"/><line id="_Path_91" data-name="&lt;Path&gt;" class="cls-4" x1="55.1" y1="263.43" x2="412.7" y2="263.43"/></g></g></svg>