<svg id="Layer_1" data-name="Layer 1" xmlns="http://www.w3.org/2000/svg" viewBox="0 0 473.4 298"><defs><style>.cls-1{fill:#edf0f4;}.cls-2{fill:#58595b;}.cls-3,.cls-7{fill:none;stroke:#414042;stroke-miterlimit:10;stroke-width:1.5px;}.cls-4{fill:#fff;}.cls-5{fill:#00fecb;}.cls-6{fill:#00d4ff;}.cls-7{stroke-linecap:round;}.cls-8,.cls-9{fill:#414042;}.cls-9{opacity:0.3;}.cls-10{fill:#e6e7e8;}</style></defs><title>Servicio-branding</title><g id="_Group_" data-name="&lt;Group&gt;"><path id="_Path_" data-name="&lt;Path&gt;" class="cls-1" d="M68.42,97.64h0a19.7,19.7,0,0,0,19.69,19.69H128A18.58,18.58,0,0,1,146.59,136h0A18.6,18.6,0,0,1,128,154.51H46a20.73,20.73,0,0,0-20.73,20.72h0A20.73,20.73,0,0,0,46,196H95.66a26,26,0,0,1,26,26.34l-.4,35.55H360.65V233.77A37.81,37.81,0,0,1,398.46,196h36a20.73,20.73,0,0,0,20.73-20.73h0a20.73,20.73,0,0,0-20.73-20.72H392.58A18.59,18.59,0,0,1,374,135.92h0a18.58,18.58,0,0,1,18.58-18.59h8.81a19.69,19.69,0,0,0,19.68-19.69h0A19.68,19.68,0,0,0,401.39,78H88.11A19.69,19.69,0,0,0,68.42,97.64Z"/><rect id="_Rectangle_" data-name="&lt;Rectangle&gt;" class="cls-2" x="99.71" y="136.59" width="156.81" height="112.71" rx="1" ry="1"/><line id="_Path_2" data-name="&lt;Path&gt;" class="cls-3" x1="222" y1="136.59" x2="232.83" y2="136.59"/><path id="_Path_3" data-name="&lt;Path&gt;" class="cls-3" d="M237.4,136.59h15.22a3.9,3.9,0,0,1,3.89,3.9V245.41a3.9,3.9,0,0,1-3.89,3.89h-149a3.9,3.9,0,0,1-3.89-3.89V140.49a3.9,3.9,0,0,1,3.89-3.9h89.29"/><rect id="_Rectangle_2" data-name="&lt;Rectangle&gt;" class="cls-4" x="107.32" y="145.46" width="140.73" height="91.46"/><rect id="_Rectangle_3" data-name="&lt;Rectangle&gt;" class="cls-5" x="107.32" y="145.46" width="140.73" height="35.77"/><rect id="_Rectangle_4" data-name="&lt;Rectangle&gt;" class="cls-6" x="107.32" y="187.14" width="140.73" height="6.66"/><path id="_Path_4" data-name="&lt;Path&gt;" class="cls-4" d="M253.77,255.56h-153a7.49,7.49,0,0,1-7.4-6.29l-1.09-6.65h70.93l2.72,3.9h19.6l2.93-3.9h74.74l-.95,5.79A8.54,8.54,0,0,1,253.77,255.56Z"/><path id="_Path_5" data-name="&lt;Path&gt;" class="cls-3" d="M263.15,242.62l-.95,5.79a8.54,8.54,0,0,1-8.43,7.15h-153a7.49,7.49,0,0,1-7.4-6.29l-1.09-6.65h70.93l2.72,3.9h5.49"/><g id="_Group_2" data-name="&lt;Group&gt;"><line id="_Path_6" data-name="&lt;Path&gt;" class="cls-7" x1="417.87" y1="131.9" x2="426.48" y2="131.9"/><line id="_Path_7" data-name="&lt;Path&gt;" class="cls-7" x1="422.17" y1="136.21" x2="422.17" y2="127.6"/></g><g id="_Group_3" data-name="&lt;Group&gt;"><line id="_Path_8" data-name="&lt;Path&gt;" class="cls-7" x1="148.99" y1="103.84" x2="157.6" y2="103.84"/><line id="_Path_9" data-name="&lt;Path&gt;" class="cls-7" x1="153.3" y1="108.14" x2="153.3" y2="99.53"/></g><g id="_Group_4" data-name="&lt;Group&gt;"><line id="_Path_10" data-name="&lt;Path&gt;" class="cls-7" x1="334.33" y1="81.01" x2="340.42" y2="74.91"/><line id="_Path_11" data-name="&lt;Path&gt;" class="cls-7" x1="340.42" y1="81.01" x2="334.33" y2="74.91"/></g><g id="_Group_5" data-name="&lt;Group&gt;"><line id="_Path_12" data-name="&lt;Path&gt;" class="cls-7" x1="69.94" y1="166.39" x2="76.03" y2="160.3"/><line id="_Path_13" data-name="&lt;Path&gt;" class="cls-7" x1="76.03" y1="166.39" x2="69.94" y2="160.3"/></g><line id="_Path_14" data-name="&lt;Path&gt;" class="cls-3" x1="356.8" y1="131.9" x2="391.86" y2="131.9"/><line id="_Path_15" data-name="&lt;Path&gt;" class="cls-3" x1="127.53" y1="70.81" x2="64.91" y2="70.81"/><line id="_Path_16" data-name="&lt;Path&gt;" class="cls-3" x1="254.3" y1="77.96" x2="330.5" y2="77.96"/><line id="_Path_17" data-name="&lt;Path&gt;" class="cls-3" x1="402.08" y1="131.9" x2="394.88" y2="131.9"/><line id="_Path_18" data-name="&lt;Path&gt;" class="cls-3" x1="202.08" y1="63.96" x2="237.14" y2="63.96"/><line id="_Path_19" data-name="&lt;Path&gt;" class="cls-3" x1="247.36" y1="63.96" x2="240.16" y2="63.96"/><path id="_Path_20" data-name="&lt;Path&gt;" class="cls-8" d="M91.77,130.32a2.72,2.72,0,1,1-2.71-2.71A2.71,2.71,0,0,1,91.77,130.32Z"/><path id="_Path_21" data-name="&lt;Path&gt;" class="cls-8" d="M120.18,92.59a1.72,1.72,0,1,1-1.71-1.71A1.72,1.72,0,0,1,120.18,92.59Z"/><circle id="_Path_22" data-name="&lt;Path&gt;" class="cls-8" cx="297.36" cy="63.96" r="1.71"/><path id="_Path_23" data-name="&lt;Path&gt;" class="cls-8" d="M364.27,173.82a2.72,2.72,0,1,1-2.72-2.71A2.72,2.72,0,0,1,364.27,173.82Z"/><path id="_Path_24" data-name="&lt;Path&gt;" class="cls-8" d="M392.32,101.4a2.26,2.26,0,1,1-2.26-2.26A2.26,2.26,0,0,1,392.32,101.4Z"/><path id="_Path_25" data-name="&lt;Path&gt;" class="cls-9" d="M263.15,242.62h0l-1.49-.24,0,.24H258V140.49a5.41,5.41,0,0,0-5.41-5.41H237.4v1.51h-4.57v-1.51H222v1.51H192.89v-1.51h-1.3v46.68h1.51v75.31h60.67a10,10,0,0,0,9.92-8.42l.95-5.78-1.49-.25Z"/><g id="_Group_6" data-name="&lt;Group&gt;"><rect id="_Rectangle_5" data-name="&lt;Rectangle&gt;" class="cls-4" x="197.13" y="93.07" width="130.26" height="164.27"/><rect id="_Rectangle_6" data-name="&lt;Rectangle&gt;" class="cls-5" x="197.13" y="93.07" width="130.26" height="26.87"/><rect id="_Rectangle_7" data-name="&lt;Rectangle&gt;" class="cls-6" x="197.13" y="124.15" width="130.26" height="4.6"/><polyline id="_Path_26" data-name="&lt;Path&gt;" class="cls-3" points="197.13 181.76 197.13 93.07 327.39 93.07 327.39 205.95"/><path id="_Path_27" data-name="&lt;Path&gt;" class="cls-4" d="M215.87,107.57a3.74,3.74,0,1,1-3.73-3.73A3.73,3.73,0,0,1,215.87,107.57Z"/><line id="_Path_28" data-name="&lt;Path&gt;" class="cls-3" x1="250.98" y1="107.57" x2="305.14" y2="107.57"/><line id="_Path_29" data-name="&lt;Path&gt;" class="cls-3" x1="214.63" y1="138.51" x2="309.18" y2="138.51"/><line id="_Path_30" data-name="&lt;Path&gt;" class="cls-3" x1="214.63" y1="147.01" x2="309.18" y2="147.01"/><line id="_Path_31" data-name="&lt;Path&gt;" class="cls-3" x1="214.63" y1="155.51" x2="309.18" y2="155.51"/><line id="_Path_32" data-name="&lt;Path&gt;" class="cls-3" x1="214.63" y1="164.01" x2="266.96" y2="164.01"/></g><rect id="_Path_33" data-name="&lt;Path&gt;" class="cls-9" x="281.42" y="207.48" width="83.88" height="51.38" rx="4.65" ry="4.65"/><g id="_Group_7" data-name="&lt;Group&gt;"><rect id="_Rectangle_8" data-name="&lt;Rectangle&gt;" class="cls-4" x="286.97" y="208.99" width="80.85" height="48.35" rx="1.56" ry="1.56"/><path id="_Path_34" data-name="&lt;Path&gt;" class="cls-4" d="M367.82,209l-39,23.17a2.51,2.51,0,0,1-2.87,0L287,209Z"/><polygon id="_Path_35" data-name="&lt;Path&gt;" class="cls-5" points="367.82 208.99 286.97 208.99 301.28 217.5 353.5 217.5 367.82 208.99"/><polygon id="_Path_36" data-name="&lt;Path&gt;" class="cls-6" points="343.89 223.21 349.16 220.07 305.62 220.07 310.89 223.21 343.89 223.21"/><path id="_Path_37" data-name="&lt;Path&gt;" class="cls-3" d="M287.6,209.43,326,232.16a2.51,2.51,0,0,0,2.87,0l37.94-22.43"/><path id="_Path_38" data-name="&lt;Path&gt;" class="cls-3" d="M287,244.13v-32A3.13,3.13,0,0,1,290.1,209h74.58a3.14,3.14,0,0,1,3.14,3.14V224"/></g><g id="_Group_8" data-name="&lt;Group&gt;"><rect id="_Rectangle_9" data-name="&lt;Rectangle&gt;" class="cls-4" x="355.64" y="215.3" width="29.72" height="54.36" rx="1.12" ry="1.12" transform="translate(128.02 612.98) rotate(-90)"/><rect id="_Path_39" data-name="&lt;Path&gt;" class="cls-5" x="343.32" y="227.55" width="54.36" height="10.48"/><rect id="_Path_40" data-name="&lt;Path&gt;" class="cls-6" x="343.32" y="240.05" width="54.36" height="2.36"/><rect id="_Rectangle_10" data-name="&lt;Rectangle&gt;" class="cls-3" x="355.64" y="215.3" width="29.72" height="54.36" rx="1.12" ry="1.12" transform="translate(128.02 612.98) rotate(-90)"/></g><path id="_Path_41" data-name="&lt;Path&gt;" class="cls-9" d="M219.2,183.8H200.69v1.51h-4.41V183.8H190v1.51h-3.69V183.8h-3.82a5.52,5.52,0,0,0-5.51,5.52v63.24a5.51,5.51,0,0,0,5.51,5.51H219.2a5.52,5.52,0,0,0,5.52-5.51V189.32A5.53,5.53,0,0,0,219.2,183.8Z"/><g id="_Group_9" data-name="&lt;Group&gt;"><g id="_Group_10" data-name="&lt;Group&gt;"><rect id="_Rectangle_11" data-name="&lt;Rectangle&gt;" class="cls-4" x="175.41" y="185.31" width="44.77" height="71.25" rx="1.99" ry="1.99"/><path id="_Path_42" data-name="&lt;Path&gt;" class="cls-3" d="M175.41,255.58V189.32a4,4,0,0,1,4-4h3.81"/><path id="_Path_43" data-name="&lt;Path&gt;" class="cls-3" d="M197.66,185.31h18.52a4,4,0,0,1,4,4v55.17"/><line id="_Path_44" data-name="&lt;Path&gt;" class="cls-3" x1="186.93" y1="185.31" x2="193.26" y2="185.31"/><line id="_Path_45" data-name="&lt;Path&gt;" class="cls-3" x1="191.17" y1="190.68" x2="204.42" y2="190.68"/><path id="_Path_46" data-name="&lt;Path&gt;" class="cls-3" d="M200,250.73a2.15,2.15,0,1,1-2.15-2.14A2.15,2.15,0,0,1,200,250.73Z"/><rect id="_Rectangle_12" data-name="&lt;Rectangle&gt;" class="cls-10" x="179.89" y="195.59" width="35.82" height="50.47"/><rect id="_Rectangle_13" data-name="&lt;Rectangle&gt;" class="cls-5" x="179.89" y="195.59" width="35.82" height="15.92"/><rect id="_Rectangle_14" data-name="&lt;Rectangle&gt;" class="cls-6" x="179.89" y="214.54" width="35.82" height="3.55"/></g></g><g id="_Group_11" data-name="&lt;Group&gt;"><path id="_Path_47" data-name="&lt;Path&gt;" class="cls-4" d="M317.12,256.38V249.3a1,1,0,0,0-1-1h-102a1,1,0,0,0-.41.09L206.09,252a1,1,0,0,0,0,1.75l7.67,3.54a1,1,0,0,0,.41.09h102A1,1,0,0,0,317.12,256.38Z"/><rect id="_Path_48" data-name="&lt;Path&gt;" class="cls-5" x="217.42" y="248.33" width="89.94" height="9.01"/><rect id="_Path_49" data-name="&lt;Path&gt;" class="cls-6" x="217.42" y="248.42" width="89.94" height="4.18"/><path id="_Path_50" data-name="&lt;Path&gt;" class="cls-3" d="M317.12,257.34v-9H214l-8.63,4a.57.57,0,0,0,0,1l8.63,4Z"/><line id="_Path_51" data-name="&lt;Path&gt;" class="cls-3" x1="217.42" y1="248.02" x2="217.42" y2="257.34"/></g><g id="_Group_12" data-name="&lt;Group&gt;"><line id="_Path_52" data-name="&lt;Path&gt;" class="cls-3" x1="77.62" y1="257.34" x2="407.79" y2="257.34"/><line id="_Path_53" data-name="&lt;Path&gt;" class="cls-3" x1="68.42" y1="257.34" x2="73.94" y2="257.34"/><line id="_Path_54" data-name="&lt;Path&gt;" class="cls-3" x1="410.94" y1="257.34" x2="423.13" y2="257.34"/></g></g><g id="_Group_13" data-name="&lt;Group&gt;"><path id="_Path_55" data-name="&lt;Path&gt;" class="cls-1" d="M68.42,97.64h0a19.7,19.7,0,0,0,19.69,19.69H128A18.58,18.58,0,0,1,146.59,136h0A18.6,18.6,0,0,1,128,154.51H46a20.73,20.73,0,0,0-20.73,20.72h0A20.73,20.73,0,0,0,46,196H95.66a26,26,0,0,1,26,26.34l-.4,35.55H360.65V233.77A37.81,37.81,0,0,1,398.46,196h36a20.73,20.73,0,0,0,20.73-20.73h0a20.73,20.73,0,0,0-20.73-20.72H392.58A18.59,18.59,0,0,1,374,135.92h0a18.58,18.58,0,0,1,18.58-18.59h8.81a19.69,19.69,0,0,0,19.68-19.69h0A19.68,19.68,0,0,0,401.39,78H88.11A19.69,19.69,0,0,0,68.42,97.64Z"/><rect id="_Rectangle_15" data-name="&lt;Rectangle&gt;" class="cls-2" x="99.71" y="136.59" width="156.81" height="112.71" rx="1" ry="1"/><line id="_Path_56" data-name="&lt;Path&gt;" class="cls-3" x1="222" y1="136.59" x2="232.83" y2="136.59"/><path id="_Path_57" data-name="&lt;Path&gt;" class="cls-3" d="M237.4,136.59h15.22a3.9,3.9,0,0,1,3.89,3.9V245.41a3.9,3.9,0,0,1-3.89,3.89h-149a3.9,3.9,0,0,1-3.89-3.89V140.49a3.9,3.9,0,0,1,3.89-3.9h89.29"/><rect id="_Rectangle_16" data-name="&lt;Rectangle&gt;" class="cls-4" x="107.32" y="145.46" width="140.73" height="91.46"/><rect id="_Rectangle_17" data-name="&lt;Rectangle&gt;" class="cls-5" x="107.32" y="145.46" width="140.73" height="35.77"/><rect id="_Rectangle_18" data-name="&lt;Rectangle&gt;" class="cls-6" x="107.32" y="187.14" width="140.73" height="6.66"/><path id="_Path_58" data-name="&lt;Path&gt;" class="cls-4" d="M253.77,255.56h-153a7.49,7.49,0,0,1-7.4-6.29l-1.09-6.65h70.93l2.72,3.9h19.6l2.93-3.9h74.74l-.95,5.79A8.54,8.54,0,0,1,253.77,255.56Z"/><path id="_Path_59" data-name="&lt;Path&gt;" class="cls-3" d="M263.15,242.62l-.95,5.79a8.54,8.54,0,0,1-8.43,7.15h-153a7.49,7.49,0,0,1-7.4-6.29l-1.09-6.65h70.93l2.72,3.9h5.49"/><g id="_Group_14" data-name="&lt;Group&gt;"><line id="_Path_60" data-name="&lt;Path&gt;" class="cls-7" x1="417.87" y1="131.9" x2="426.48" y2="131.9"/><line id="_Path_61" data-name="&lt;Path&gt;" class="cls-7" x1="422.17" y1="136.21" x2="422.17" y2="127.6"/></g><g id="_Group_15" data-name="&lt;Group&gt;"><line id="_Path_62" data-name="&lt;Path&gt;" class="cls-7" x1="148.99" y1="103.84" x2="157.6" y2="103.84"/><line id="_Path_63" data-name="&lt;Path&gt;" class="cls-7" x1="153.3" y1="108.14" x2="153.3" y2="99.53"/></g><g id="_Group_16" data-name="&lt;Group&gt;"><line id="_Path_64" data-name="&lt;Path&gt;" class="cls-7" x1="334.33" y1="81.01" x2="340.42" y2="74.91"/><line id="_Path_65" data-name="&lt;Path&gt;" class="cls-7" x1="340.42" y1="81.01" x2="334.33" y2="74.91"/></g><g id="_Group_17" data-name="&lt;Group&gt;"><line id="_Path_66" data-name="&lt;Path&gt;" class="cls-7" x1="69.94" y1="166.39" x2="76.03" y2="160.3"/><line id="_Path_67" data-name="&lt;Path&gt;" class="cls-7" x1="76.03" y1="166.39" x2="69.94" y2="160.3"/></g><line id="_Path_68" data-name="&lt;Path&gt;" class="cls-3" x1="356.8" y1="131.9" x2="391.86" y2="131.9"/><line id="_Path_69" data-name="&lt;Path&gt;" class="cls-3" x1="127.53" y1="70.81" x2="64.91" y2="70.81"/><line id="_Path_70" data-name="&lt;Path&gt;" class="cls-3" x1="254.3" y1="77.96" x2="330.5" y2="77.96"/><line id="_Path_71" data-name="&lt;Path&gt;" class="cls-3" x1="402.08" y1="131.9" x2="394.88" y2="131.9"/><line id="_Path_72" data-name="&lt;Path&gt;" class="cls-3" x1="202.08" y1="63.96" x2="237.14" y2="63.96"/><line id="_Path_73" data-name="&lt;Path&gt;" class="cls-3" x1="247.36" y1="63.96" x2="240.16" y2="63.96"/><path id="_Path_74" data-name="&lt;Path&gt;" class="cls-8" d="M91.77,130.32a2.72,2.72,0,1,1-2.71-2.71A2.71,2.71,0,0,1,91.77,130.32Z"/><path id="_Path_75" data-name="&lt;Path&gt;" class="cls-8" d="M120.18,92.59a1.72,1.72,0,1,1-1.71-1.71A1.72,1.72,0,0,1,120.18,92.59Z"/><circle id="_Path_76" data-name="&lt;Path&gt;" class="cls-8" cx="297.36" cy="63.96" r="1.71"/><path id="_Path_77" data-name="&lt;Path&gt;" class="cls-8" d="M364.27,173.82a2.72,2.72,0,1,1-2.72-2.71A2.72,2.72,0,0,1,364.27,173.82Z"/><path id="_Path_78" data-name="&lt;Path&gt;" class="cls-8" d="M392.32,101.4a2.26,2.26,0,1,1-2.26-2.26A2.26,2.26,0,0,1,392.32,101.4Z"/><path id="_Path_79" data-name="&lt;Path&gt;" class="cls-9" d="M263.15,242.62h0l-1.49-.24,0,.24H258V140.49a5.41,5.41,0,0,0-5.41-5.41H237.4v1.51h-4.57v-1.51H222v1.51H192.89v-1.51h-1.3v46.68h1.51v75.31h60.67a10,10,0,0,0,9.92-8.42l.95-5.78-1.49-.25Z"/><g id="_Group_18" data-name="&lt;Group&gt;"><rect id="_Rectangle_19" data-name="&lt;Rectangle&gt;" class="cls-4" x="197.13" y="93.07" width="130.26" height="164.27"/><rect id="_Rectangle_20" data-name="&lt;Rectangle&gt;" class="cls-5" x="197.13" y="93.07" width="130.26" height="26.87"/><rect id="_Rectangle_21" data-name="&lt;Rectangle&gt;" class="cls-6" x="197.13" y="124.15" width="130.26" height="4.6"/><polyline id="_Path_80" data-name="&lt;Path&gt;" class="cls-3" points="197.13 181.76 197.13 93.07 327.39 93.07 327.39 205.95"/><path id="_Path_81" data-name="&lt;Path&gt;" class="cls-4" d="M215.87,107.57a3.74,3.74,0,1,1-3.73-3.73A3.73,3.73,0,0,1,215.87,107.57Z"/><line id="_Path_82" data-name="&lt;Path&gt;" class="cls-3" x1="250.98" y1="107.57" x2="305.14" y2="107.57"/><line id="_Path_83" data-name="&lt;Path&gt;" class="cls-3" x1="214.63" y1="138.51" x2="309.18" y2="138.51"/><line id="_Path_84" data-name="&lt;Path&gt;" class="cls-3" x1="214.63" y1="147.01" x2="309.18" y2="147.01"/><line id="_Path_85" data-name="&lt;Path&gt;" class="cls-3" x1="214.63" y1="155.51" x2="309.18" y2="155.51"/><line id="_Path_86" data-name="&lt;Path&gt;" class="cls-3" x1="214.63" y1="164.01" x2="266.96" y2="164.01"/></g><rect id="_Path_87" data-name="&lt;Path&gt;" class="cls-9" x="281.42" y="207.48" width="83.88" height="51.38" rx="4.65" ry="4.65"/><g id="_Group_19" data-name="&lt;Group&gt;"><rect id="_Rectangle_22" data-name="&lt;Rectangle&gt;" class="cls-4" x="286.97" y="208.99" width="80.85" height="48.35" rx="1.56" ry="1.56"/><path id="_Path_88" data-name="&lt;Path&gt;" class="cls-4" d="M367.82,209l-39,23.17a2.51,2.51,0,0,1-2.87,0L287,209Z"/><polygon id="_Path_89" data-name="&lt;Path&gt;" class="cls-5" points="367.82 208.99 286.97 208.99 301.28 217.5 353.5 217.5 367.82 208.99"/><polygon id="_Path_90" data-name="&lt;Path&gt;" class="cls-6" points="343.89 223.21 349.16 220.07 305.62 220.07 310.89 223.21 343.89 223.21"/><path id="_Path_91" data-name="&lt;Path&gt;" class="cls-3" d="M287.6,209.43,326,232.16a2.51,2.51,0,0,0,2.87,0l37.94-22.43"/><path id="_Path_92" data-name="&lt;Path&gt;" class="cls-3" d="M287,244.13v-32A3.13,3.13,0,0,1,290.1,209h74.58a3.14,3.14,0,0,1,3.14,3.14V224"/></g><g id="_Group_20" data-name="&lt;Group&gt;"><rect id="_Rectangle_23" data-name="&lt;Rectangle&gt;" class="cls-4" x="355.64" y="215.3" width="29.72" height="54.36" rx="1.12" ry="1.12" transform="translate(128.02 612.98) rotate(-90)"/><rect id="_Path_93" data-name="&lt;Path&gt;" class="cls-5" x="343.32" y="227.55" width="54.36" height="10.48"/><rect id="_Path_94" data-name="&lt;Path&gt;" class="cls-6" x="343.32" y="240.05" width="54.36" height="2.36"/><rect id="_Rectangle_24" data-name="&lt;Rectangle&gt;" class="cls-3" x="355.64" y="215.3" width="29.72" height="54.36" rx="1.12" ry="1.12" transform="translate(128.02 612.98) rotate(-90)"/></g><path id="_Path_95" data-name="&lt;Path&gt;" class="cls-9" d="M219.2,183.8H200.69v1.51h-4.41V183.8H190v1.51h-3.69V183.8h-3.82a5.52,5.52,0,0,0-5.51,5.52v63.24a5.51,5.51,0,0,0,5.51,5.51H219.2a5.52,5.52,0,0,0,5.52-5.51V189.32A5.53,5.53,0,0,0,219.2,183.8Z"/><g id="_Group_21" data-name="&lt;Group&gt;"><g id="_Group_22" data-name="&lt;Group&gt;"><rect id="_Rectangle_25" data-name="&lt;Rectangle&gt;" class="cls-4" x="175.41" y="185.31" width="44.77" height="71.25" rx="1.99" ry="1.99"/><path id="_Path_96" data-name="&lt;Path&gt;" class="cls-3" d="M175.41,255.58V189.32a4,4,0,0,1,4-4h3.81"/><path id="_Path_97" data-name="&lt;Path&gt;" class="cls-3" d="M197.66,185.31h18.52a4,4,0,0,1,4,4v55.17"/><line id="_Path_98" data-name="&lt;Path&gt;" class="cls-3" x1="186.93" y1="185.31" x2="193.26" y2="185.31"/><line id="_Path_99" data-name="&lt;Path&gt;" class="cls-3" x1="191.17" y1="190.68" x2="204.42" y2="190.68"/><path id="_Path_100" data-name="&lt;Path&gt;" class="cls-3" d="M200,250.73a2.15,2.15,0,1,1-2.15-2.14A2.15,2.15,0,0,1,200,250.73Z"/><rect id="_Rectangle_26" data-name="&lt;Rectangle&gt;" class="cls-10" x="179.89" y="195.59" width="35.82" height="50.47"/><rect id="_Rectangle_27" data-name="&lt;Rectangle&gt;" class="cls-5" x="179.89" y="195.59" width="35.82" height="15.92"/><rect id="_Rectangle_28" data-name="&lt;Rectangle&gt;" class="cls-6" x="179.89" y="214.54" width="35.82" height="3.55"/></g></g><g id="_Group_23" data-name="&lt;Group&gt;"><path id="_Path_101" data-name="&lt;Path&gt;" class="cls-4" d="M317.12,256.38V249.3a1,1,0,0,0-1-1h-102a1,1,0,0,0-.41.09L206.09,252a1,1,0,0,0,0,1.75l7.67,3.54a1,1,0,0,0,.41.09h102A1,1,0,0,0,317.12,256.38Z"/><rect id="_Path_102" data-name="&lt;Path&gt;" class="cls-5" x="217.42" y="248.33" width="89.94" height="9.01"/><rect id="_Path_103" data-name="&lt;Path&gt;" class="cls-6" x="217.42" y="248.42" width="89.94" height="4.18"/><path id="_Path_104" data-name="&lt;Path&gt;" class="cls-3" d="M317.12,257.34v-9H214l-8.63,4a.57.57,0,0,0,0,1l8.63,4Z"/><line id="_Path_105" data-name="&lt;Path&gt;" class="cls-3" x1="217.42" y1="248.02" x2="217.42" y2="257.34"/></g><g id="_Group_24" data-name="&lt;Group&gt;"><line id="_Path_106" data-name="&lt;Path&gt;" class="cls-3" x1="77.62" y1="257.34" x2="407.79" y2="257.34"/><line id="_Path_107" data-name="&lt;Path&gt;" class="cls-3" x1="68.42" y1="257.34" x2="73.94" y2="257.34"/><line id="_Path_108" data-name="&lt;Path&gt;" class="cls-3" x1="410.94" y1="257.34" x2="423.13" y2="257.34"/></g></g></svg>